<svg width="740" height="88" viewBox="0 0 740 88" fill="none" xmlns="http://www.w3.org/2000/svg">
<path d="M16.5413 82.8284C13.7025 82.8284 10.8831 82.459 8.08316 81.7201C5.32212 80.9423 2.94996 79.8535 0.966683 78.4535L4.69992 71.2204C6.25543 72.3481 8.04427 73.2425 10.0664 73.9036C12.1275 74.5647 14.208 74.8953 16.3079 74.8953C18.6801 74.8953 20.5467 74.4286 21.9078 73.4953C23.2689 72.562 23.9494 71.2593 23.9494 69.5871C23.9494 68.5371 23.6772 67.6038 23.1328 66.7872C22.5883 65.9705 21.6161 65.3483 20.2162 64.9205C18.8551 64.4928 16.9301 64.2789 14.4413 64.2789H3.99993L6.09988 41.2962H31.0075V48.8793H9.48312L14.383 44.5628L12.9247 60.954L8.02483 56.6374H16.6579C20.7023 56.6374 23.9494 57.2013 26.3993 58.3291C28.8882 59.4179 30.6964 60.9151 31.8242 62.8206C32.9519 64.7261 33.5158 66.8844 33.5158 69.2954C33.5158 71.7065 32.913 73.9425 31.7075 76.0036C30.502 78.0258 28.6354 79.6785 26.1077 80.9618C23.6188 82.2062 20.43 82.8284 16.5413 82.8284ZM34.3165 87.9616L53.566 33.0131H61.6741L42.4246 87.9616H34.3165ZM70.5916 82.1284V44.7961L74.6748 48.8793H62.4251V41.2962H80.0413V82.1284H70.5916ZM105.801 82.8284C102.456 82.8284 99.462 82.0118 96.8176 80.3785C94.1732 78.7063 92.0927 76.2952 90.5761 73.1453C89.0595 69.9954 88.3012 66.1844 88.3012 61.7123C88.3012 57.2402 89.0595 53.4292 90.5761 50.2793C92.0927 47.1294 94.1732 44.7378 96.8176 43.1045C99.462 41.4323 102.456 40.5962 105.801 40.5962C109.184 40.5962 112.178 41.4323 114.784 43.1045C117.428 44.7378 119.509 47.1294 121.025 50.2793C122.542 53.4292 123.3 57.2402 123.3 61.7123C123.3 66.1844 122.542 69.9954 121.025 73.1453C119.509 76.2952 117.428 78.7063 114.784 80.3785C112.178 82.0118 109.184 82.8284 105.801 82.8284ZM105.801 74.8369C107.395 74.8369 108.776 74.3897 109.942 73.4953C111.148 72.6009 112.081 71.1815 112.742 69.2371C113.442 67.2927 113.792 64.7844 113.792 61.7123C113.792 58.6402 113.442 56.1319 112.742 54.1875C112.081 52.2431 111.148 50.8237 109.942 49.9293C108.776 49.0349 107.395 48.5877 105.801 48.5877C104.245 48.5877 102.865 49.0349 101.659 49.9293C100.493 50.8237 99.5592 52.2431 98.8592 54.1875C98.1981 56.1319 97.8676 58.6402 97.8676 61.7123C97.8676 64.7844 98.1981 67.2927 98.8592 69.2371C99.5592 71.1815 100.493 72.6009 101.659 73.4953C102.865 74.3897 104.245 74.8369 105.801 74.8369Z" fill="white"/>
<rect x="167.925" y="37.4682" width="43.7488" height="43.7488" fill="#D9D9D9" stroke="black" stroke-width="1.82287"/>
<rect x="222.611" y="37.4682" width="43.7488" height="43.7488" fill="#D9D9D9" stroke="black" stroke-width="1.82287"/>
<rect x="277.297" y="37.4682" width="43.7488" height="43.7488" fill="#D9D9D9" stroke="black" stroke-width="1.82287"/>
<rect x="331.983" y="37.4682" width="43.7488" height="43.7488" fill="#D9D9D9" stroke="black" stroke-width="1.82287"/>
<rect x="386.669" y="37.4682" width="43.7488" height="43.7488" fill="#D9D9D9" stroke="black" stroke-width="1.82287"/>
<rect x="441.355" y="37.4682" width="43.7488" height="43.7488" fill="#D9D9D9" stroke="black" stroke-width="1.82287"/>
<rect x="496.041" y="37.4682" width="43.7488" height="43.7488" fill="#D9D9D9" stroke="black" stroke-width="1.82287"/>
<rect x="550.727" y="37.4682" width="43.7488" height="43.7488" fill="#D9D9D9" stroke="black" stroke-width="1.82287"/>
<rect x="605.413" y="37.4682" width="43.7488" height="43.7488" fill="#D9D9D9" stroke="black" stroke-width="1.82287"/>
<rect x="660.099" y="37.4682" width="43.7488" height="43.7488" fill="#D9D9D9" stroke="black" stroke-width="1.82287"/>
<g clip-path="url(#clip0_99_720)">
<mask id="mask0_99_720" style="mask-type:alpha" maskUnits="userSpaceOnUse" x="166" y="36" width="539" height="47">
<rect x="167.798" y="37.5428" width="43.7488" height="43.7488" fill="#D9D9D9" stroke="black" stroke-width="1.82287"/>
<rect x="222.484" y="37.5428" width="43.7488" height="43.7488" fill="#D9D9D9" stroke="black" stroke-width="1.82287"/>
<rect x="277.17" y="37.5428" width="43.7488" height="43.7488" fill="#D9D9D9" stroke="black" stroke-width="1.82287"/>
<rect x="331.856" y="37.5428" width="43.7488" height="43.7488" fill="#D9D9D9" stroke="black" stroke-width="1.82287"/>
<rect x="386.542" y="37.5428" width="43.7488" height="43.7488" fill="#D9D9D9" stroke="black" stroke-width="1.82287"/>
</mask>
<g mask="url(#mask0_99_720)">
<rect x="166.886" y="36.6313" width="537.746" height="45.5717" fill="url(#paint0_linear_99_720)"/>
</g>
</g>
<g clip-path="url(#clip1_99_720)">
<path d="M429.291 21.2548C429.395 21.4066 429.535 21.5308 429.698 21.6165C429.862 21.7023 430.043 21.7471 430.227 21.7471C430.412 21.7471 430.593 21.7023 430.756 21.6165C430.92 21.5308 431.059 21.4066 431.164 21.2548L441.418 6.44404C441.536 6.27321 441.606 6.07313 441.619 5.86552C441.632 5.65791 441.588 5.45072 441.491 5.26646C441.394 5.08221 441.249 4.92793 441.071 4.82039C440.893 4.71285 440.689 4.65617 440.481 4.6565H419.974C419.766 4.65735 419.563 4.71477 419.386 4.82256C419.208 4.93036 419.064 5.08446 418.967 5.26829C418.871 5.45212 418.827 5.65873 418.839 5.86589C418.851 6.07305 418.92 6.27294 419.037 6.44404L429.291 21.2548Z" fill="white"/>
</g>
<path d="M148.075 34.1219C146.821 34.1219 145.698 33.8156 144.707 33.2031C143.715 32.5761 142.935 31.6719 142.366 30.4907C141.797 29.3095 141.513 27.8804 141.513 26.2033C141.513 24.5263 141.797 23.0972 142.366 21.9159C142.935 20.7347 143.715 19.8379 144.707 19.2254C145.698 18.5983 146.821 18.2848 148.075 18.2848C149.344 18.2848 150.467 18.5983 151.444 19.2254C152.436 19.8379 153.216 20.7347 153.784 21.9159C154.353 23.0972 154.638 24.5263 154.638 26.2033C154.638 27.8804 154.353 29.3095 153.784 30.4907C153.216 31.6719 152.436 32.5761 151.444 33.2031C150.467 33.8156 149.344 34.1219 148.075 34.1219ZM148.075 31.1251C148.673 31.1251 149.191 30.9574 149.628 30.622C150.08 30.2866 150.43 29.7543 150.678 29.0251C150.941 28.296 151.072 27.3554 151.072 26.2033C151.072 25.0513 150.941 24.1107 150.678 23.3815C150.43 22.6524 150.08 22.1201 149.628 21.7847C149.191 21.4493 148.673 21.2816 148.075 21.2816C147.492 21.2816 146.974 21.4493 146.522 21.7847C146.085 22.1201 145.735 22.6524 145.472 23.3815C145.224 24.1107 145.1 25.0513 145.1 26.2033C145.1 27.3554 145.224 28.296 145.472 29.0251C145.735 29.7543 146.085 30.2866 146.522 30.622C146.974 30.9574 147.492 31.1251 148.075 31.1251Z" fill="white"/>
<path d="M175.73 25.4479L166.616 21.0972L166.616 31.6215L175.73 27.2708L175.73 25.4479ZM699.501 26.3594C699.501 29.0441 701.678 31.2204 704.362 31.2204C707.047 31.2204 709.223 29.0441 709.223 26.3594C709.223 23.6748 707.047 21.4984 704.362 21.4984C701.678 21.4984 699.501 23.6748 699.501 26.3594ZM174.819 27.2708L704.362 27.2709L704.362 25.448L174.819 25.4479L174.819 27.2708Z" fill="white"/>
<path d="M718.686 33.8594V19.8598L720.217 21.391H715.623V18.5473H722.229V33.8594H718.686ZM731.889 34.1219C730.635 34.1219 729.512 33.8156 728.52 33.2031C727.529 32.5761 726.749 31.6719 726.18 30.4907C725.611 29.3095 725.327 27.8804 725.327 26.2033C725.327 24.5263 725.611 23.0972 726.18 21.9159C726.749 20.7347 727.529 19.8379 728.52 19.2254C729.512 18.5983 730.635 18.2848 731.889 18.2848C733.158 18.2848 734.281 18.5983 735.258 19.2254C736.249 19.8379 737.03 20.7347 737.598 21.9159C738.167 23.0972 738.451 24.5263 738.451 26.2033C738.451 27.8804 738.167 29.3095 737.598 30.4907C737.03 31.6719 736.249 32.5761 735.258 33.2031C734.281 33.8156 733.158 34.1219 731.889 34.1219ZM731.889 31.1251C732.487 31.1251 733.005 30.9574 733.442 30.622C733.894 30.2866 734.244 29.7543 734.492 29.0251C734.755 28.296 734.886 27.3554 734.886 26.2033C734.886 25.0513 734.755 24.1107 734.492 23.3815C734.244 22.6524 733.894 22.1201 733.442 21.7847C733.005 21.4493 732.487 21.2816 731.889 21.2816C731.306 21.2816 730.788 21.4493 730.336 21.7847C729.898 22.1201 729.548 22.6524 729.286 23.3815C729.038 24.1107 728.914 25.0513 728.914 26.2033C728.914 27.3554 729.038 28.296 729.286 29.0251C729.548 29.7543 729.898 30.2866 730.336 30.622C730.788 30.9574 731.306 31.1251 731.889 31.1251Z" fill="white"/>
<defs>
<linearGradient id="paint0_linear_99_720" x1="166.886" y1="59.4171" x2="704.632" y2="59.4171" gradientUnits="userSpaceOnUse">
<stop stop-color="#E63737"/>
<stop offset="0.490298" stop-color="#E6CA38"/>
<stop offset="1" stop-color="#5AE438"/>
</linearGradient>
<clipPath id="clip0_99_720">
<rect width="264" height="45" fill="white" transform="translate(166.886 36.6313)"/>
</clipPath>
<clipPath id="clip1_99_720">
<rect width="537.746" height="26.2049" fill="white" transform="translate(167.014 0.0993652)"/>
</clipPath>
</defs>
</svg>
