<svg width="739" height="89" viewBox="0 0 739 89" fill="none" xmlns="http://www.w3.org/2000/svg">
<path d="M20.5796 83.1971C16.8612 83.1971 13.627 82.4224 10.8769 80.8731C8.16557 79.3237 6.07396 77.0578 4.60209 74.0753C3.13022 71.0929 2.39428 67.4132 2.39428 63.0363C2.39428 58.3496 3.26579 54.3794 5.00879 51.1258C6.79053 47.8722 9.23074 45.3932 12.3294 43.6889C15.4668 41.9847 19.069 41.1325 23.1361 41.1325C25.3051 41.1325 27.3774 41.3649 29.3528 41.8297C31.3282 42.2945 33.0325 42.9917 34.4656 43.9214L30.9796 50.8353C29.8563 50.0606 28.6556 49.5377 27.3774 49.2666C26.0992 48.9567 24.7629 48.8018 23.3685 48.8018C19.8437 48.8018 17.0549 49.8669 15.002 51.9973C12.9492 54.1276 11.9227 57.2844 11.9227 61.4676C11.9227 62.1648 11.9227 62.9395 11.9227 63.7916C11.9614 64.6438 12.0776 65.4959 12.2713 66.348L9.65681 63.9078C10.3927 62.3972 11.3417 61.1384 12.5037 60.1313C13.6657 59.0855 15.0408 58.3108 16.6288 57.8073C18.2556 57.265 20.0374 56.9939 21.974 56.9939C24.6079 56.9939 26.9707 57.5168 29.0623 58.5626C31.1539 59.6084 32.8194 61.0803 34.0589 62.9782C35.3371 64.8762 35.9762 67.1033 35.9762 69.6597C35.9762 72.4098 35.279 74.8113 33.8846 76.8642C32.5289 78.8783 30.6891 80.447 28.3651 81.5703C26.0798 82.6548 23.4847 83.1971 20.5796 83.1971ZM20.0567 76.167C21.3737 76.167 22.5357 75.9346 23.5428 75.4698C24.5886 74.9662 25.402 74.2497 25.983 73.32C26.564 72.3904 26.8545 71.3253 26.8545 70.1245C26.8545 68.2653 26.2154 66.7935 24.9372 65.7089C23.6977 64.5857 22.0321 64.024 19.9405 64.024C18.5461 64.024 17.326 64.2952 16.2802 64.8374C15.2344 65.341 14.4017 66.0575 13.7819 66.9871C13.2009 67.878 12.9104 68.9238 12.9104 70.1245C12.9104 71.2865 13.2009 72.3323 13.7819 73.2619C14.3629 74.1528 15.1763 74.8694 16.2221 75.4117C17.2679 75.9152 18.5461 76.167 20.0567 76.167ZM36.9339 88.3099L56.107 33.5795H64.1829L45.0099 88.3099H36.9339ZM73.065 82.4999V45.3158L77.132 49.3828H64.931V41.8297H82.4772V82.4999H73.065ZM108.134 83.1971C104.803 83.1971 101.821 82.3837 99.1869 80.7569C96.553 79.0913 94.4808 76.6899 92.9702 73.5524C91.4596 70.415 90.7043 66.6192 90.7043 62.1648C90.7043 57.7105 91.4596 53.9146 92.9702 50.7772C94.4808 47.6398 96.553 45.2577 99.1869 43.6308C101.821 41.9653 104.803 41.1325 108.134 41.1325C111.504 41.1325 114.487 41.9653 117.082 43.6308C119.716 45.2577 121.788 47.6398 123.298 50.7772C124.809 53.9146 125.564 57.7105 125.564 62.1648C125.564 66.6192 124.809 70.415 123.298 73.5524C121.788 76.6899 119.716 79.0913 117.082 80.7569C114.487 82.3837 111.504 83.1971 108.134 83.1971ZM108.134 75.2374C109.722 75.2374 111.097 74.7919 112.259 73.901C113.46 73.0102 114.39 71.5964 115.048 69.6597C115.745 67.7231 116.094 65.2248 116.094 62.1648C116.094 59.1049 115.745 56.6066 115.048 54.6699C114.39 52.7332 113.46 51.3194 112.259 50.4286C111.097 49.5377 109.722 49.0923 108.134 49.0923C106.585 49.0923 105.21 49.5377 104.009 50.4286C102.847 51.3194 101.918 52.7332 101.22 54.6699C100.562 56.6066 100.233 59.1049 100.233 62.1648C100.233 65.2248 100.562 67.7231 101.22 69.6597C101.918 71.5964 102.847 73.0102 104.009 73.901C105.21 74.7919 106.585 75.2374 108.134 75.2374Z" fill="white"/>
<rect x="169.759" y="37.6329" width="43.5751" height="43.5751" fill="#D9D9D9" stroke="black" stroke-width="1.81563"/>
<rect x="224.229" y="37.633" width="43.5751" height="43.5751" fill="#D9D9D9" stroke="black" stroke-width="1.81563"/>
<rect x="278.697" y="37.633" width="43.5751" height="43.5751" fill="#D9D9D9" stroke="black" stroke-width="1.81563"/>
<rect x="333.166" y="37.633" width="43.5751" height="43.5751" fill="#D9D9D9" stroke="black" stroke-width="1.81563"/>
<rect x="387.635" y="37.633" width="43.5751" height="43.5751" fill="#D9D9D9" stroke="black" stroke-width="1.81563"/>
<rect x="442.104" y="37.633" width="43.5751" height="43.5751" fill="#D9D9D9" stroke="black" stroke-width="1.81563"/>
<rect x="496.573" y="37.6329" width="43.5751" height="43.5751" fill="#D9D9D9" stroke="black" stroke-width="1.81563"/>
<rect x="551.042" y="37.633" width="43.5751" height="43.5751" fill="#D9D9D9" stroke="black" stroke-width="1.81563"/>
<rect x="605.511" y="37.633" width="43.5751" height="43.5751" fill="#D9D9D9" stroke="black" stroke-width="1.81563"/>
<rect x="659.98" y="37.6329" width="43.5751" height="43.5751" fill="#D9D9D9" stroke="black" stroke-width="1.81563"/>
<g clip-path="url(#clip0_99_796)">
<mask id="mask0_99_796" style="mask-type:alpha" maskUnits="userSpaceOnUse" x="168" y="36" width="537" height="46">
<rect x="169.83" y="37.4077" width="43.5751" height="43.5751" fill="#D9D9D9" stroke="black" stroke-width="1.81563"/>
<rect x="224.299" y="37.4078" width="43.5751" height="43.5751" fill="#D9D9D9" stroke="black" stroke-width="1.81563"/>
<rect x="278.768" y="37.4078" width="43.5751" height="43.5751" fill="#D9D9D9" stroke="black" stroke-width="1.81563"/>
<rect x="333.236" y="37.4078" width="43.5751" height="43.5751" fill="#D9D9D9" stroke="black" stroke-width="1.81563"/>
<rect x="387.706" y="37.4078" width="43.5751" height="43.5751" fill="#D9D9D9" stroke="black" stroke-width="1.81563"/>
<rect x="442.174" y="37.4078" width="43.5751" height="43.5751" fill="#D9D9D9" stroke="black" stroke-width="1.81563"/>
</mask>
<g mask="url(#mask0_99_796)">
<rect x="168.922" y="36.4999" width="535.611" height="45.3908" fill="url(#paint0_linear_99_796)"/>
</g>
</g>
<g clip-path="url(#clip1_99_796)">
<path d="M486.079 21.4839C486.184 21.6351 486.323 21.7587 486.485 21.8441C486.648 21.9295 486.829 21.9741 487.012 21.9741C487.196 21.9741 487.377 21.9295 487.539 21.8441C487.702 21.7587 487.841 21.6351 487.945 21.4839L498.158 6.73187C498.276 6.56172 498.346 6.36242 498.358 6.15564C498.371 5.94886 498.327 5.74249 498.231 5.55896C498.135 5.37544 497.99 5.22177 497.813 5.11466C497.636 5.00755 497.432 4.95109 497.225 4.95142H476.799C476.593 4.95227 476.39 5.00946 476.213 5.11682C476.037 5.22419 475.893 5.37768 475.797 5.56078C475.701 5.74388 475.657 5.94967 475.669 6.15601C475.681 6.36235 475.75 6.56144 475.867 6.73187L486.079 21.4839Z" fill="white"/>
</g>
<path d="M150.017 34.3834C148.768 34.3834 147.65 34.0784 146.662 33.4683C145.674 32.8437 144.897 31.9432 144.331 30.7667C143.764 29.5901 143.481 28.1667 143.481 26.4963C143.481 24.8259 143.764 23.4025 144.331 22.2259C144.897 21.0494 145.674 20.1561 146.662 19.5461C147.65 18.9215 148.768 18.6092 150.017 18.6092C151.281 18.6092 152.399 18.9215 153.372 19.5461C154.36 20.1561 155.137 21.0494 155.704 22.2259C156.27 23.4025 156.553 24.8259 156.553 26.4963C156.553 28.1667 156.27 29.5901 155.704 30.7667C155.137 31.9432 154.36 32.8437 153.372 33.4683C152.399 34.0784 151.281 34.3834 150.017 34.3834ZM150.017 31.3985C150.613 31.3985 151.128 31.2315 151.564 30.8974C152.014 30.5633 152.363 30.0331 152.61 29.3069C152.871 28.5806 153.002 27.6438 153.002 26.4963C153.002 25.3488 152.871 24.412 152.61 23.6857C152.363 22.9594 152.014 22.4293 151.564 22.0952C151.128 21.7611 150.613 21.5941 150.017 21.5941C149.436 21.5941 148.921 21.7611 148.47 22.0952C148.034 22.4293 147.686 22.9594 147.424 23.6857C147.178 24.412 147.054 25.3488 147.054 26.4963C147.054 27.6438 147.178 28.5806 147.424 29.3069C147.686 30.0331 148.034 30.5633 148.47 30.8974C148.921 31.2315 149.436 31.3985 150.017 31.3985Z" fill="white"/>
<path d="M177.515 25.7141L168.437 21.3807L168.437 31.8632L177.515 27.5298L177.515 25.7141ZM699.207 26.622C699.207 29.296 701.374 31.4637 704.048 31.4637C706.722 31.4637 708.89 29.296 708.89 26.622C708.89 23.948 706.722 21.7803 704.048 21.7803C701.374 21.7803 699.207 23.948 699.207 26.622ZM176.607 27.5298L704.048 27.5298L704.048 25.7142L176.607 25.7141L176.607 27.5298Z" fill="white"/>
<path d="M718.285 34.1219V20.1779L719.81 21.703H715.234V18.8706H721.814V34.1219H718.285ZM731.436 34.3834C730.186 34.3834 729.068 34.0784 728.08 33.4683C727.093 32.8437 726.316 31.9432 725.749 30.7667C725.183 29.5901 724.899 28.1667 724.899 26.4963C724.899 24.8259 725.183 23.4025 725.749 22.2259C726.316 21.0494 727.093 20.1561 728.08 19.5461C729.068 18.9215 730.186 18.6092 731.436 18.6092C732.699 18.6092 733.818 18.9215 734.791 19.5461C735.779 20.1561 736.556 21.0494 737.122 22.2259C737.689 23.4025 737.972 24.8259 737.972 26.4963C737.972 28.1667 737.689 29.5901 737.122 30.7667C736.556 31.9432 735.779 32.8437 734.791 33.4683C733.818 34.0784 732.699 34.3834 731.436 34.3834ZM731.436 31.3985C732.031 31.3985 732.547 31.2315 732.983 30.8974C733.433 30.5633 733.781 30.0331 734.028 29.3069C734.29 28.5806 734.421 27.6438 734.421 26.4963C734.421 25.3488 734.29 24.412 734.028 23.6857C733.781 22.9594 733.433 22.4293 732.983 22.0952C732.547 21.7611 732.031 21.5941 731.436 21.5941C730.855 21.5941 730.339 21.7611 729.889 22.0952C729.453 22.4293 729.104 22.9594 728.843 23.6857C728.596 24.412 728.473 25.3488 728.473 26.4963C728.473 27.6438 728.596 28.5806 728.843 29.3069C729.104 30.0331 729.453 30.5633 729.889 30.8974C730.339 31.2315 730.855 31.3985 731.436 31.3985Z" fill="white"/>
<defs>
<linearGradient id="paint0_linear_99_796" x1="168.922" y1="59.1952" x2="704.533" y2="59.1952" gradientUnits="userSpaceOnUse">
<stop stop-color="#E63737"/>
<stop offset="0.490298" stop-color="#E6CA38"/>
<stop offset="1" stop-color="#5AE438"/>
</linearGradient>
<clipPath id="clip0_99_796">
<rect width="318" height="46" fill="white" transform="translate(168.922 36.4999)"/>
</clipPath>
<clipPath id="clip1_99_796">
<rect width="535.611" height="26.1009" fill="white" transform="translate(168.852 0.412476)"/>
</clipPath>
</defs>
</svg>
