<svg width="740" height="89" viewBox="0 0 740 89" fill="none" xmlns="http://www.w3.org/2000/svg">
<path d="M8.9546 82.872L25.4371 45.5817L27.892 49.6731H5.85682L10.0651 45.231V56.3363H1.64851V41.9579H34.4382V48.095L19.2416 82.872H8.9546ZM33.388 88.7168L52.6761 33.6582H60.8004L41.5124 88.7168H33.388ZM69.7358 82.872V45.4648L73.8272 49.5562H61.553V41.9579H79.2045V82.872H69.7358ZM105.015 83.5734C101.664 83.5734 98.6641 82.7551 96.0144 81.1185C93.3647 79.443 91.2801 77.0271 89.7604 73.8709C88.2407 70.7146 87.4809 66.896 87.4809 62.4149C87.4809 57.9339 88.2407 54.1152 89.7604 50.959C91.2801 47.8027 93.3647 45.4064 96.0144 43.7698C98.6641 42.0943 101.664 41.2565 105.015 41.2565C108.406 41.2565 111.406 42.0943 114.017 43.7698C116.666 45.4064 118.751 47.8027 120.271 50.959C121.79 54.1152 122.55 57.9339 122.55 62.4149C122.55 66.896 121.79 70.7146 120.271 73.8709C118.751 77.0271 116.666 79.443 114.017 81.1185C111.406 82.7551 108.406 83.5734 105.015 83.5734ZM105.015 75.5659C106.613 75.5659 107.996 75.1178 109.165 74.2216C110.373 73.3253 111.308 71.9031 111.971 69.9548C112.672 68.0065 113.023 65.4932 113.023 62.4149C113.023 59.3366 112.672 56.8233 111.971 54.875C111.308 52.9268 110.373 51.5045 109.165 50.6083C107.996 49.7121 106.613 49.264 105.015 49.264C103.457 49.264 102.074 49.7121 100.866 50.6083C99.6967 51.5045 98.7615 52.9268 98.0601 54.875C97.3977 56.8233 97.0665 59.3366 97.0665 62.4149C97.0665 65.4932 97.3977 68.0065 98.0601 69.9548C98.7615 71.9031 99.6967 73.3253 100.866 74.2216C102.074 75.1178 103.457 75.5659 105.015 75.5659Z" fill="white"/>
<rect x="167.01" y="38.1222" width="43.8365" height="43.8365" fill="#D9D9D9" stroke="black" stroke-width="1.82652"/>
<rect x="221.806" y="38.1222" width="43.8365" height="43.8365" fill="#D9D9D9" stroke="black" stroke-width="1.82652"/>
<rect x="276.602" y="38.1222" width="43.8365" height="43.8365" fill="#D9D9D9" stroke="black" stroke-width="1.82652"/>
<rect x="331.398" y="38.1222" width="43.8365" height="43.8365" fill="#D9D9D9" stroke="black" stroke-width="1.82652"/>
<rect x="386.193" y="38.1222" width="43.8365" height="43.8365" fill="#D9D9D9" stroke="black" stroke-width="1.82652"/>
<rect x="440.988" y="38.1222" width="43.8365" height="43.8365" fill="#D9D9D9" stroke="black" stroke-width="1.82652"/>
<rect x="495.784" y="38.1222" width="43.8365" height="43.8365" fill="#D9D9D9" stroke="black" stroke-width="1.82652"/>
<rect x="550.58" y="38.1222" width="43.8365" height="43.8365" fill="#D9D9D9" stroke="black" stroke-width="1.82652"/>
<rect x="605.376" y="38.1222" width="43.8365" height="43.8365" fill="#D9D9D9" stroke="black" stroke-width="1.82652"/>
<rect x="660.172" y="38.1222" width="43.8365" height="43.8365" fill="#D9D9D9" stroke="black" stroke-width="1.82652"/>
<g clip-path="url(#clip0_99_568)">
<mask id="mask0_99_568" style="mask-type:alpha" maskUnits="userSpaceOnUse" x="166" y="37" width="539" height="46">
<rect x="167.01" y="38.1222" width="43.8365" height="43.8365" fill="#D9D9D9" stroke="black" stroke-width="1.82652"/>
<rect x="221.806" y="38.1222" width="43.8365" height="43.8365" fill="#D9D9D9" stroke="black" stroke-width="1.82652"/>
<rect x="276.602" y="38.1222" width="43.8365" height="43.8365" fill="#D9D9D9" stroke="black" stroke-width="1.82652"/>
<rect x="331.398" y="38.1222" width="43.8365" height="43.8365" fill="#D9D9D9" stroke="black" stroke-width="1.82652"/>
<rect x="386.193" y="38.1222" width="43.8365" height="43.8365" fill="#D9D9D9" stroke="black" stroke-width="1.82652"/>
<rect x="440.988" y="38.1222" width="43.8365" height="43.8365" fill="#D9D9D9" stroke="black" stroke-width="1.82652"/>
<rect x="495.784" y="38.1222" width="43.8365" height="43.8365" fill="#D9D9D9" stroke="black" stroke-width="1.82652"/>
</mask>
<g mask="url(#mask0_99_568)">
<rect x="166.097" y="37.2089" width="538.824" height="45.663" fill="url(#paint0_linear_99_568)"/>
</g>
</g>
<g clip-path="url(#clip1_99_568)">
<path d="M538.398 21.8764C538.503 22.0285 538.643 22.1529 538.807 22.2388C538.97 22.3247 539.152 22.3696 539.337 22.3696C539.521 22.3696 539.703 22.3247 539.867 22.2388C540.03 22.1529 540.17 22.0285 540.275 21.8764L550.549 7.03592C550.668 6.86475 550.738 6.66426 550.751 6.45623C550.764 6.24821 550.72 6.0406 550.623 5.85598C550.526 5.67135 550.381 5.51676 550.202 5.40901C550.024 5.30126 549.819 5.24446 549.611 5.24479H529.062C528.855 5.24565 528.651 5.30317 528.473 5.41119C528.295 5.5192 528.15 5.67361 528.054 5.85781C527.957 6.042 527.913 6.24903 527.925 6.45661C527.938 6.66419 528.006 6.86447 528.124 7.03592L538.398 21.8764Z" fill="white"/>
</g>
<path d="M147.105 34.7272C145.848 34.7272 144.723 34.4203 143.729 33.8066C142.735 33.1783 141.954 32.2723 141.384 31.0887C140.814 29.9051 140.529 28.4731 140.529 26.7927C140.529 25.1123 140.814 23.6803 141.384 22.4968C141.954 21.3132 142.735 20.4145 143.729 19.8008C144.723 19.1725 145.848 18.8583 147.105 18.8583C148.376 18.8583 149.501 19.1725 150.48 19.8008C151.474 20.4145 152.255 21.3132 152.825 22.4968C153.395 23.6803 153.68 25.1123 153.68 26.7927C153.68 28.4731 153.395 29.9051 152.825 31.0887C152.255 32.2723 151.474 33.1783 150.48 33.8066C149.501 34.4203 148.376 34.7272 147.105 34.7272ZM147.105 31.7244C147.704 31.7244 148.222 31.5563 148.661 31.2202C149.114 30.8842 149.464 30.3508 149.713 29.6202C149.976 28.8896 150.107 27.9471 150.107 26.7927C150.107 25.6384 149.976 24.6959 149.713 23.9653C149.464 23.2347 149.114 22.7013 148.661 22.3653C148.222 22.0292 147.704 21.8611 147.105 21.8611C146.52 21.8611 146.001 22.0292 145.548 22.3653C145.11 22.7013 144.759 23.2347 144.496 23.9653C144.248 24.6959 144.124 25.6384 144.124 26.7927C144.124 27.9471 144.248 28.8896 144.496 29.6202C144.759 30.3508 145.11 30.8842 145.548 31.2202C146.001 31.5563 146.52 31.7244 147.105 31.7244Z" fill="white"/>
<path d="M174.839 26.0509L165.706 21.6914L165.706 32.2368L174.839 27.8774L174.839 26.0509ZM699.66 26.9642C699.66 29.6542 701.841 31.8349 704.531 31.8349C707.221 31.8349 709.401 29.6542 709.401 26.9642C709.401 24.2741 707.221 22.0934 704.531 22.0934C701.841 22.0934 699.66 24.2741 699.66 26.9642ZM173.925 27.8774L704.531 27.8774L704.531 26.0509L173.925 26.0509L173.925 27.8774Z" fill="white"/>
<path d="M718.898 34.4641V20.4364L720.432 21.9707H715.83V19.1213H722.449V34.4641H718.898ZM732.128 34.7272C730.871 34.7272 729.746 34.4203 728.753 33.8066C727.759 33.1783 726.977 32.2723 726.407 31.0887C725.837 29.9051 725.553 28.4731 725.553 26.7927C725.553 25.1123 725.837 23.6803 726.407 22.4968C726.977 21.3132 727.759 20.4145 728.753 19.8008C729.746 19.1725 730.871 18.8583 732.128 18.8583C733.399 18.8583 734.524 19.1725 735.503 19.8008C736.497 20.4145 737.279 21.3132 737.849 22.4968C738.419 23.6803 738.703 25.1123 738.703 26.7927C738.703 28.4731 738.419 29.9051 737.849 31.0887C737.279 32.2723 736.497 33.1783 735.503 33.8066C734.524 34.4203 733.399 34.7272 732.128 34.7272ZM732.128 31.7244C732.727 31.7244 733.246 31.5563 733.684 31.2202C734.137 30.8842 734.488 30.3508 734.736 29.6202C734.999 28.8896 735.131 27.9471 735.131 26.7927C735.131 25.6384 734.999 24.6959 734.736 23.9653C734.488 23.2347 734.137 22.7013 733.684 22.3653C733.246 22.0292 732.727 21.8611 732.128 21.8611C731.544 21.8611 731.025 22.0292 730.572 22.3653C730.133 22.7013 729.783 23.2347 729.52 23.9653C729.271 24.6959 729.147 25.6384 729.147 26.7927C729.147 27.9471 729.271 28.8896 729.52 29.6202C729.783 30.3508 730.133 30.8842 730.572 31.2202C731.025 31.5563 731.544 31.7244 732.128 31.7244Z" fill="white"/>
<defs>
<linearGradient id="paint0_linear_99_568" x1="166.097" y1="60.0404" x2="704.921" y2="60.0404" gradientUnits="userSpaceOnUse">
<stop stop-color="#E63737"/>
<stop offset="0.490298" stop-color="#E6CA38"/>
<stop offset="1" stop-color="#5AE438"/>
</linearGradient>
<clipPath id="clip0_99_568">
<rect width="374.77" height="45.663" fill="white" transform="translate(166.097 37.2089)"/>
</clipPath>
<clipPath id="clip1_99_568">
<rect width="538.824" height="26.2574" fill="white" transform="translate(166.097 0.678482)"/>
</clipPath>
</defs>
</svg>
