<svg width="743" height="89" viewBox="0 0 743 89" fill="none" xmlns="http://www.w3.org/2000/svg">
<path d="M20.0433 83.1997C16.6226 83.1997 13.6295 82.6944 11.0639 81.6837C8.49838 80.6342 6.49648 79.1765 5.05822 77.3106C3.61997 75.4059 2.90084 73.1902 2.90084 70.6635C2.90084 68.1369 3.60053 65.9989 4.99992 64.2497C6.43817 62.4616 8.44007 61.1205 11.0056 60.2265C13.5711 59.2935 16.5837 58.8271 20.0433 58.8271C23.5418 58.8271 26.5738 59.2935 29.1393 60.2265C31.7437 61.1205 33.7456 62.4616 35.145 64.2497C36.5832 65.9989 37.3024 68.1369 37.3024 70.6635C37.3024 73.1902 36.5832 75.4059 35.145 77.3106C33.7067 79.1765 31.6854 80.6342 29.081 81.6837C26.5155 82.6944 23.5029 83.1997 20.0433 83.1997ZM20.0433 76.2611C22.4145 76.2611 24.2803 75.7363 25.6408 74.6868C27.0402 73.6372 27.7399 72.199 27.7399 70.372C27.7399 68.545 27.0402 67.1262 25.6408 66.1155C24.2803 65.066 22.4145 64.5412 20.0433 64.5412C17.711 64.5412 15.8646 65.066 14.5041 66.1155C13.1436 67.1262 12.4633 68.545 12.4633 70.372C12.4633 72.199 13.1436 73.6372 14.5041 74.6868C15.8646 75.7363 17.711 76.2611 20.0433 76.2611ZM20.0433 63.6083C16.8947 63.6083 14.1348 63.1807 11.7636 62.3255C9.4313 61.4704 7.60433 60.2265 6.28268 58.5938C4.99992 56.9224 4.35853 54.9399 4.35853 52.6465C4.35853 50.2364 5.01935 48.1762 6.34099 46.4658C7.66263 44.7166 9.50904 43.3755 11.8802 42.4426C14.2514 41.4708 16.9724 40.9849 20.0433 40.9849C23.1919 40.9849 25.9324 41.4708 28.2647 42.4426C30.6359 43.3755 32.4823 44.7166 33.8039 46.4658C35.1644 48.1762 35.8447 50.2364 35.8447 52.6465C35.8447 54.9399 35.1839 56.9224 33.8622 58.5938C32.5795 60.2265 30.7525 61.4704 28.3813 62.3255C26.0101 63.1807 23.2308 63.6083 20.0433 63.6083ZM20.0433 58.0691C22.0258 58.0691 23.5806 57.6221 24.7079 56.728C25.8741 55.8339 26.4571 54.6095 26.4571 53.0546C26.4571 51.422 25.8546 50.1587 24.6496 49.2646C23.4835 48.3706 21.948 47.9235 20.0433 47.9235C18.1775 47.9235 16.6615 48.3706 15.4953 49.2646C14.3291 50.1587 13.7461 51.422 13.7461 53.0546C13.7461 54.6095 14.3097 55.8339 15.437 56.728C16.5643 57.6221 18.0997 58.0691 20.0433 58.0691ZM38.5943 88.3308L57.8358 33.4049H65.9406L46.699 88.3308H38.5943ZM74.8543 82.5V45.1831L78.9359 49.2646H66.6913V41.6846H84.3002V82.5H74.8543ZM110.049 83.1997C106.706 83.1997 103.713 82.3834 101.07 80.7508C98.4263 79.0793 96.3467 76.6692 94.8307 73.5206C93.3147 70.372 92.5567 66.5626 92.5567 62.0923C92.5567 57.6221 93.3147 53.8126 94.8307 50.664C96.3467 47.5154 98.4263 45.1248 101.07 43.4922C103.713 41.8207 106.706 40.9849 110.049 40.9849C113.431 40.9849 116.424 41.8207 119.028 43.4922C121.672 45.1248 123.751 47.5154 125.267 50.664C126.783 53.8126 127.541 57.6221 127.541 62.0923C127.541 66.5626 126.783 70.372 125.267 73.5206C123.751 76.6692 121.672 79.0793 119.028 80.7508C116.424 82.3834 113.431 83.1997 110.049 83.1997ZM110.049 75.2115C111.643 75.2115 113.023 74.7645 114.189 73.8705C115.394 72.9764 116.327 71.5576 116.988 69.614C117.687 67.6704 118.037 65.1632 118.037 62.0923C118.037 59.0214 117.687 56.5142 116.988 54.5706C116.327 52.627 115.394 51.2082 114.189 50.3142C113.023 49.4201 111.643 48.9731 110.049 48.9731C108.494 48.9731 107.114 49.4201 105.909 50.3142C104.743 51.2082 103.81 52.627 103.11 54.5706C102.45 56.5142 102.119 59.0214 102.119 62.0923C102.119 65.1632 102.45 67.6704 103.11 69.614C103.81 71.5576 104.743 72.9764 105.909 73.8705C107.114 74.7645 108.494 75.2115 110.049 75.2115Z" fill="white"/>
<rect x="171.767" y="37.8581" width="43.7308" height="43.7308" fill="#D9D9D9" stroke="black" stroke-width="1.82212"/>
<rect x="226.431" y="37.8581" width="43.7308" height="43.7308" fill="#D9D9D9" stroke="black" stroke-width="1.82212"/>
<rect x="281.094" y="37.8581" width="43.7308" height="43.7308" fill="#D9D9D9" stroke="black" stroke-width="1.82212"/>
<rect x="335.757" y="37.8581" width="43.7308" height="43.7308" fill="#D9D9D9" stroke="black" stroke-width="1.82212"/>
<rect x="390.421" y="37.8581" width="43.7308" height="43.7308" fill="#D9D9D9" stroke="black" stroke-width="1.82212"/>
<rect x="445.084" y="37.8581" width="43.7308" height="43.7308" fill="#D9D9D9" stroke="black" stroke-width="1.82212"/>
<rect x="499.748" y="37.8581" width="43.7308" height="43.7308" fill="#D9D9D9" stroke="black" stroke-width="1.82212"/>
<rect x="554.412" y="37.8581" width="43.7308" height="43.7308" fill="#D9D9D9" stroke="black" stroke-width="1.82212"/>
<rect x="609.075" y="37.8581" width="43.7308" height="43.7308" fill="#D9D9D9" stroke="black" stroke-width="1.82212"/>
<rect x="663.738" y="37.8581" width="43.7308" height="43.7308" fill="#D9D9D9" stroke="black" stroke-width="1.82212"/>
<g clip-path="url(#clip0_99_449)">
<mask id="mask0_99_449" style="mask-type:alpha" maskUnits="userSpaceOnUse" x="170" y="36" width="539" height="47">
<rect x="171.767" y="37.8581" width="43.7308" height="43.7308" fill="#D9D9D9" stroke="black" stroke-width="1.82212"/>
<rect x="226.431" y="37.8581" width="43.7308" height="43.7308" fill="#D9D9D9" stroke="black" stroke-width="1.82212"/>
<rect x="281.094" y="37.8581" width="43.7308" height="43.7308" fill="#D9D9D9" stroke="black" stroke-width="1.82212"/>
<rect x="335.757" y="37.8581" width="43.7308" height="43.7308" fill="#D9D9D9" stroke="black" stroke-width="1.82212"/>
<rect x="390.421" y="37.8581" width="43.7308" height="43.7308" fill="#D9D9D9" stroke="black" stroke-width="1.82212"/>
<rect x="445.084" y="37.8581" width="43.7308" height="43.7308" fill="#D9D9D9" stroke="black" stroke-width="1.82212"/>
<rect x="499.748" y="37.8581" width="43.7308" height="43.7308" fill="#D9D9D9" stroke="black" stroke-width="1.82212"/>
<rect x="554.412" y="37.8581" width="43.7308" height="43.7308" fill="#D9D9D9" stroke="black" stroke-width="1.82212"/>
</mask>
<g mask="url(#mask0_99_449)">
<rect x="170.856" y="36.9471" width="537.524" height="45.5529" fill="url(#paint0_linear_99_449)"/>
</g>
</g>
<g clip-path="url(#clip1_99_449)">
<path d="M597.659 21.6515C597.764 21.8032 597.903 21.9273 598.066 22.013C598.23 22.0987 598.411 22.1435 598.595 22.1435C598.779 22.1435 598.961 22.0987 599.124 22.013C599.287 21.9273 599.427 21.8032 599.531 21.6515L609.781 6.84681C609.899 6.67605 609.969 6.47605 609.982 6.26852C609.995 6.061 609.951 5.8539 609.854 5.66972C609.758 5.48554 609.613 5.33132 609.435 5.22383C609.257 5.11633 609.053 5.05967 608.845 5.06H588.346C588.138 5.06086 587.935 5.11825 587.758 5.226C587.581 5.33375 587.436 5.48778 587.34 5.67154C587.244 5.85529 587.199 6.06182 587.211 6.26889C587.224 6.47597 587.292 6.67577 587.41 6.84681L597.659 21.6515Z" fill="white"/>
</g>
<path d="M151.928 34.522C150.674 34.522 149.552 34.2159 148.561 33.6036C147.569 32.9768 146.789 32.073 146.221 30.8923C145.652 29.7116 145.368 28.283 145.368 26.6067C145.368 24.9304 145.652 23.5018 146.221 22.3211C146.789 21.1404 147.569 20.2439 148.561 19.6316C149.552 19.0048 150.674 18.6914 151.928 18.6914C153.196 18.6914 154.318 19.0048 155.295 19.6316C156.286 20.2439 157.066 21.1404 157.635 22.3211C158.203 23.5018 158.487 24.9304 158.487 26.6067C158.487 28.283 158.203 29.7116 157.635 30.8923C157.066 32.073 156.286 32.9768 155.295 33.6036C154.318 34.2159 153.196 34.522 151.928 34.522ZM151.928 31.5264C152.525 31.5264 153.043 31.3588 153.48 31.0235C153.932 30.6882 154.282 30.1562 154.53 29.4273C154.792 28.6985 154.923 27.7583 154.923 26.6067C154.923 25.4551 154.792 24.5149 154.53 23.7861C154.282 23.0572 153.932 22.5252 153.48 22.1899C153.043 21.8546 152.525 21.687 151.928 21.687C151.345 21.687 150.827 21.8546 150.375 22.1899C149.938 22.5252 149.588 23.0572 149.326 23.7861C149.078 24.5149 148.954 25.4551 148.954 26.6067C148.954 27.7583 149.078 28.6985 149.326 29.4273C149.588 30.1562 149.938 30.6882 150.375 31.0235C150.827 31.3588 151.345 31.5264 151.928 31.5264Z" fill="white"/>
<path d="M179.566 25.8485L170.456 21.4996L170.456 32.0195L179.566 27.6706L179.566 25.8485ZM703.121 26.7596C703.121 29.4431 705.297 31.6186 707.98 31.6186C710.664 31.6186 712.839 29.4431 712.839 26.7596C712.839 24.0761 710.664 21.9006 707.98 21.9006C705.297 21.9006 703.121 24.0761 703.121 26.7596ZM178.655 27.6706L707.98 27.6707L707.98 25.8485L178.655 25.8485L178.655 27.6706Z" fill="white"/>
<path d="M722.295 34.2596V20.2657L723.825 21.7963H719.233V18.9538H725.837V34.2596H722.295ZM735.493 34.522C734.239 34.522 733.117 34.2159 732.125 33.6036C731.134 32.9768 730.354 32.073 729.786 30.8923C729.217 29.7116 728.933 28.283 728.933 26.6067C728.933 24.9304 729.217 23.5018 729.786 22.3211C730.354 21.1404 731.134 20.2439 732.125 19.6316C733.117 19.0048 734.239 18.6914 735.493 18.6914C736.761 18.6914 737.883 19.0048 738.86 19.6316C739.851 20.2439 740.631 21.1404 741.199 22.3211C741.768 23.5018 742.052 24.9304 742.052 26.6067C742.052 28.283 741.768 29.7116 741.199 30.8923C740.631 32.073 739.851 32.9768 738.86 33.6036C737.883 34.2159 736.761 34.522 735.493 34.522ZM735.493 31.5264C736.09 31.5264 736.608 31.3588 737.045 31.0235C737.497 30.6882 737.847 30.1562 738.095 29.4273C738.357 28.6985 738.488 27.7583 738.488 26.6067C738.488 25.4551 738.357 24.5149 738.095 23.7861C737.847 23.0572 737.497 22.5252 737.045 22.1899C736.608 21.8546 736.09 21.687 735.493 21.687C734.91 21.687 734.392 21.8546 733.94 22.1899C733.503 22.5252 733.153 23.0572 732.891 23.7861C732.643 24.5149 732.519 25.4551 732.519 26.6067C732.519 27.7583 732.643 28.6985 732.891 29.4273C733.153 30.1562 733.503 30.6882 733.94 31.0235C734.392 31.3588 734.91 31.5264 735.493 31.5264Z" fill="white"/>
<defs>
<linearGradient id="paint0_linear_99_449" x1="170.856" y1="59.7235" x2="708.38" y2="59.7235" gradientUnits="userSpaceOnUse">
<stop stop-color="#E63737"/>
<stop offset="0.490298" stop-color="#E6CA38"/>
<stop offset="1" stop-color="#5AE438"/>
</linearGradient>
<clipPath id="clip0_99_449">
<rect width="428.197" height="45.5529" fill="white" transform="translate(170.856 36.9471)"/>
</clipPath>
<clipPath id="clip1_99_449">
<rect width="537.524" height="26.1941" fill="white" transform="translate(170.856 0.504761)"/>
</clipPath>
</defs>
</svg>
