<svg width="741" height="89" viewBox="0 0 741 89" fill="none" xmlns="http://www.w3.org/2000/svg">
<path d="M16.8721 41.1709C20.6426 41.1709 23.8884 41.9483 26.6095 43.5032C29.3305 45.0581 31.4296 47.3321 32.9067 50.3252C34.3838 53.2795 35.1224 56.9723 35.1224 61.4037C35.1224 66.1072 34.2283 70.0915 32.4402 73.3567C30.691 76.622 28.2615 79.1098 25.1518 80.8201C22.042 82.5305 18.4269 83.3857 14.3065 83.3857C12.1686 83.3857 10.1084 83.1524 8.12592 82.686C6.14346 82.2195 4.4331 81.5198 2.99484 80.5869L6.4933 73.6483C7.62058 74.4257 8.82561 74.9699 10.1084 75.2809C11.3911 75.553 12.7322 75.6891 14.1316 75.6891C17.6301 75.6891 20.4094 74.6201 22.4696 72.4821C24.5687 70.3442 25.6182 67.1761 25.6182 62.978C25.6182 62.2783 25.5988 61.5008 25.5599 60.6457C25.521 59.7905 25.4239 58.9353 25.2684 58.0801L27.8339 60.5291C27.1731 62.0451 26.2402 63.3278 25.0351 64.3774C23.8301 65.388 22.4307 66.1655 20.837 66.7097C19.2433 67.215 17.4551 67.4677 15.4727 67.4677C12.8683 67.4677 10.4971 66.9429 8.35915 65.8934C6.26007 64.8438 4.56915 63.3667 3.28638 61.462C2.04248 59.5573 1.42053 57.3221 1.42053 54.7566C1.42053 51.9578 2.10079 49.5478 3.4613 47.5264C4.86069 45.5051 6.72653 43.9502 9.05884 42.8618C11.43 41.7345 14.0344 41.1709 16.8721 41.1709ZM17.4551 48.2261C16.0946 48.2261 14.909 48.4788 13.8984 48.9841C12.8877 49.4506 12.0908 50.1503 11.5078 51.0832C10.9247 51.9773 10.6331 53.0462 10.6331 54.2901C10.6331 56.156 11.2551 57.6525 12.499 58.7798C13.7818 59.8682 15.4727 60.4124 17.5718 60.4124C18.9323 60.4124 20.1373 60.1598 21.1868 59.6544C22.2753 59.1102 23.111 58.3717 23.6941 57.4387C24.2771 56.5058 24.5687 55.4563 24.5687 54.2901C24.5687 53.124 24.2771 52.0939 23.6941 51.1998C23.1499 50.2669 22.353 49.5478 21.3035 49.0424C20.2539 48.4982 18.9711 48.2261 17.4551 48.2261ZM35.4832 88.5167L54.7247 33.5909H62.8295L43.5879 88.5167H35.4832ZM71.7433 82.686V45.3691L75.8248 49.4506H63.5802V41.8706H81.1891V82.686H71.7433ZM106.938 83.3857C103.595 83.3857 100.602 82.5694 97.9585 80.9367C95.3152 79.2653 93.2356 76.8552 91.7196 73.7066C90.2036 70.558 89.4456 66.7485 89.4456 62.2783C89.4456 57.808 90.2036 53.9986 91.7196 50.85C93.2356 47.7014 95.3152 45.3107 97.9585 43.6781C100.602 42.0066 103.595 41.1709 106.938 41.1709C110.32 41.1709 113.313 42.0066 115.917 43.6781C118.561 45.3107 120.64 47.7014 122.156 50.85C123.672 53.9986 124.43 57.808 124.43 62.2783C124.43 66.7485 123.672 70.558 122.156 73.7066C120.64 76.8552 118.561 79.2653 115.917 80.9367C113.313 82.5694 110.32 83.3857 106.938 83.3857ZM106.938 75.3975C108.532 75.3975 109.912 74.9505 111.078 74.0564C112.283 73.1624 113.216 71.7436 113.876 69.8C114.576 67.8564 114.926 65.3492 114.926 62.2783C114.926 59.2074 114.576 56.7002 113.876 54.7566C113.216 52.813 112.283 51.3942 111.078 50.5001C109.912 49.6061 108.532 49.159 106.938 49.159C105.383 49.159 104.003 49.6061 102.798 50.5001C101.632 51.3942 100.699 52.813 99.9992 54.7566C99.3384 56.7002 99.008 59.2074 99.008 62.2783C99.008 65.3492 99.3384 67.8564 99.9992 69.8C100.699 71.7436 101.632 73.1624 102.798 74.0564C104.003 74.9505 105.383 75.3975 106.938 75.3975Z" fill="white"/>
<rect x="168.909" y="38.0441" width="43.7308" height="43.7308" fill="#D9D9D9" stroke="black" stroke-width="1.82212"/>
<rect x="223.572" y="38.0441" width="43.7308" height="43.7308" fill="#D9D9D9" stroke="black" stroke-width="1.82212"/>
<rect x="278.236" y="38.0441" width="43.7308" height="43.7308" fill="#D9D9D9" stroke="black" stroke-width="1.82212"/>
<rect x="332.899" y="38.0441" width="43.7308" height="43.7308" fill="#D9D9D9" stroke="black" stroke-width="1.82212"/>
<rect x="387.563" y="38.0441" width="43.7308" height="43.7308" fill="#D9D9D9" stroke="black" stroke-width="1.82212"/>
<rect x="442.226" y="38.0441" width="43.7308" height="43.7308" fill="#D9D9D9" stroke="black" stroke-width="1.82212"/>
<rect x="496.89" y="38.0441" width="43.7308" height="43.7308" fill="#D9D9D9" stroke="black" stroke-width="1.82212"/>
<rect x="551.553" y="38.0441" width="43.7308" height="43.7308" fill="#D9D9D9" stroke="black" stroke-width="1.82212"/>
<rect x="606.217" y="38.0441" width="43.7308" height="43.7308" fill="#D9D9D9" stroke="black" stroke-width="1.82212"/>
<rect x="660.88" y="38.0441" width="43.7308" height="43.7308" fill="#D9D9D9" stroke="black" stroke-width="1.82212"/>
<g clip-path="url(#clip0_99_530)">
<mask id="mask0_99_530" style="mask-type:alpha" maskUnits="userSpaceOnUse" x="167" y="37" width="539" height="46">
<rect x="168.909" y="38.0441" width="43.7308" height="43.7308" fill="#D9D9D9" stroke="black" stroke-width="1.82212"/>
<rect x="223.572" y="38.0441" width="43.7308" height="43.7308" fill="#D9D9D9" stroke="black" stroke-width="1.82212"/>
<rect x="278.236" y="38.0441" width="43.7308" height="43.7308" fill="#D9D9D9" stroke="black" stroke-width="1.82212"/>
<rect x="332.899" y="38.0441" width="43.7308" height="43.7308" fill="#D9D9D9" stroke="black" stroke-width="1.82212"/>
<rect x="387.563" y="38.0441" width="43.7308" height="43.7308" fill="#D9D9D9" stroke="black" stroke-width="1.82212"/>
<rect x="442.226" y="38.0441" width="43.7308" height="43.7308" fill="#D9D9D9" stroke="black" stroke-width="1.82212"/>
<rect x="496.89" y="38.0441" width="43.7308" height="43.7308" fill="#D9D9D9" stroke="black" stroke-width="1.82212"/>
<rect x="551.553" y="38.0441" width="43.7308" height="43.7308" fill="#D9D9D9" stroke="black" stroke-width="1.82212"/>
<rect x="606.217" y="38.0441" width="43.7308" height="43.7308" fill="#D9D9D9" stroke="black" stroke-width="1.82212"/>
</mask>
<g mask="url(#mask0_99_530)">
<rect x="167.998" y="37.1331" width="537.524" height="45.5529" fill="url(#paint0_linear_99_530)"/>
</g>
</g>
<g clip-path="url(#clip1_99_530)">
<path d="M649.464 21.8376C649.569 21.9893 649.709 22.1134 649.872 22.1991C650.035 22.2848 650.216 22.3296 650.4 22.3296C650.585 22.3296 650.766 22.2848 650.929 22.1991C651.092 22.1134 651.232 21.9893 651.337 21.8376L661.586 7.03288C661.705 6.86212 661.774 6.66211 661.787 6.45459C661.8 6.24707 661.756 6.03996 661.659 5.85578C661.563 5.6716 661.418 5.51739 661.24 5.40989C661.062 5.3024 660.858 5.24574 660.65 5.24606H640.151C639.944 5.24692 639.74 5.30431 639.563 5.41206C639.386 5.51981 639.241 5.67385 639.145 5.8576C639.049 6.04136 639.004 6.24788 639.017 6.45496C639.029 6.66204 639.098 6.86184 639.215 7.03288L649.464 21.8376Z" fill="white"/>
</g>
<path d="M149.069 34.708C147.816 34.708 146.693 34.4019 145.702 33.7896C144.711 33.1628 143.931 32.259 143.363 31.0783C142.794 29.8976 142.51 28.469 142.51 26.7927C142.51 25.1164 142.794 23.6878 143.363 22.5071C143.931 21.3264 144.711 20.4299 145.702 19.8176C146.693 19.1908 147.816 18.8774 149.069 18.8774C150.338 18.8774 151.46 19.1908 152.437 19.8176C153.428 20.4299 154.208 21.3264 154.776 22.5071C155.345 23.6878 155.629 25.1164 155.629 26.7927C155.629 28.469 155.345 29.8976 154.776 31.0783C154.208 32.259 153.428 33.1628 152.437 33.7896C151.46 34.4019 150.338 34.708 149.069 34.708ZM149.069 31.7124C149.667 31.7124 150.185 31.5448 150.622 31.2095C151.074 30.8742 151.424 30.3422 151.671 29.6133C151.934 28.8845 152.065 27.9443 152.065 26.7927C152.065 25.6411 151.934 24.7009 151.671 23.9721C151.424 23.2432 151.074 22.7112 150.622 22.3759C150.185 22.0406 149.667 21.873 149.069 21.873C148.486 21.873 147.969 22.0406 147.517 22.3759C147.08 22.7112 146.73 23.2432 146.467 23.9721C146.22 24.7009 146.096 25.6411 146.096 26.7927C146.096 27.9443 146.22 28.8845 146.467 29.6133C146.73 30.3422 147.08 30.8742 147.517 31.2095C147.969 31.5448 148.486 31.7124 149.069 31.7124Z" fill="white"/>
<path d="M176.708 26.0345L167.597 21.6856L167.597 32.2056L176.708 27.8566L176.708 26.0345ZM700.263 26.9456C700.263 29.6291 702.438 31.8046 705.122 31.8046C707.806 31.8046 709.981 29.6291 709.981 26.9456C709.981 24.2621 707.806 22.0866 705.122 22.0866C702.438 22.0866 700.263 24.2621 700.263 26.9456ZM175.797 27.8566L705.122 27.8567L705.122 26.0345L175.797 26.0345L175.797 27.8566Z" fill="white"/>
<path d="M719.436 34.4456V20.4517L720.967 21.9823H716.375V19.1398H722.978V34.4456H719.436ZM732.634 34.708C731.381 34.708 730.258 34.4019 729.267 33.7896C728.276 33.1628 727.496 32.259 726.927 31.0783C726.359 29.8976 726.075 28.469 726.075 26.7927C726.075 25.1164 726.359 23.6878 726.927 22.5071C727.496 21.3264 728.276 20.4299 729.267 19.8176C730.258 19.1908 731.381 18.8774 732.634 18.8774C733.902 18.8774 735.025 19.1908 736.001 19.8176C736.993 20.4299 737.773 21.3264 738.341 22.5071C738.91 23.6878 739.194 25.1164 739.194 26.7927C739.194 28.469 738.91 29.8976 738.341 31.0783C737.773 32.259 736.993 33.1628 736.001 33.7896C735.025 34.4019 733.902 34.708 732.634 34.708ZM732.634 31.7124C733.232 31.7124 733.749 31.5448 734.187 31.2095C734.639 30.8742 734.988 30.3422 735.236 29.6133C735.499 28.8845 735.63 27.9443 735.63 26.7927C735.63 25.6411 735.499 24.7009 735.236 23.9721C734.988 23.2432 734.639 22.7112 734.187 22.3759C733.749 22.0406 733.232 21.873 732.634 21.873C732.051 21.873 731.534 22.0406 731.082 22.3759C730.644 22.7112 730.295 23.2432 730.032 23.9721C729.784 24.7009 729.661 25.6411 729.661 26.7927C729.661 27.9443 729.784 28.8845 730.032 29.6133C730.295 30.3422 730.644 30.8742 731.082 31.2095C731.534 31.5448 732.051 31.7124 732.634 31.7124Z" fill="white"/>
<defs>
<linearGradient id="paint0_linear_99_530" x1="167.998" y1="59.9095" x2="705.522" y2="59.9095" gradientUnits="userSpaceOnUse">
<stop stop-color="#E63737"/>
<stop offset="0.490298" stop-color="#E6CA38"/>
<stop offset="1" stop-color="#5AE438"/>
</linearGradient>
<clipPath id="clip0_99_530">
<rect width="482.861" height="45.5529" fill="white" transform="translate(167.998 37.1331)"/>
</clipPath>
<clipPath id="clip1_99_530">
<rect width="537.524" height="26.1941" fill="white" transform="translate(167.998 0.690765)"/>
</clipPath>
</defs>
</svg>
