<svg width="100" height="100" viewBox="0 0 100 100" fill="none" xmlns="http://www.w3.org/2000/svg">
<g clip-path="url(#clip0_247_456)">
<path d="M83.3984 0H16.6016C7.43277 0 0 7.61116 0 17V82.84C0 92.2288 7.43277 99.84 16.6016 99.84H83.3984C92.5672 99.84 100 92.2288 100 82.84V17C100 7.61116 92.5672 0 83.3984 0Z" fill="#00005B"/>
<path d="M40.4346 59.7332H24.9385L21.7557 69.7464C21.7153 69.9185 21.6207 70.0722 21.4866 70.184C21.3525 70.2957 21.1863 70.3592 21.0135 70.3648H13.1022C12.6546 70.3648 12.4979 70.1128 12.6327 69.6088L26.1053 30.2408L26.2839 29.6996C26.3585 29.4704 26.4331 29.2268 26.5077 28.934C26.6835 28.0176 26.7733 27.086 26.776 26.152C26.767 26.0867 26.7729 26.0202 26.7933 25.9576C26.8137 25.895 26.848 25.8382 26.8935 25.7915C26.9391 25.7449 26.9946 25.7097 27.0557 25.6889C27.1168 25.668 27.1818 25.6619 27.2456 25.6712H37.9116C38.2241 25.6712 38.403 25.7856 38.4483 26.0148L53.6202 69.6776C53.7546 70.1356 53.6202 70.3648 53.2178 70.3644H44.4971C44.3473 70.3815 44.1965 70.3422 44.073 70.2537C43.9495 70.1652 43.8617 70.0336 43.826 69.8836L40.4346 59.7332ZM27.38 51.2608H37.9788L37.828 50.75L37.585 49.9412L37.2303 48.7828L36.5487 46.596L34.6917 40.5788C34.3579 39.498 34.0376 38.4128 33.7307 37.3236L33.3878 36.0852L33.1065 35.0584L32.7608 33.7744L32.6792 33.4692H32.6124C32.2766 35.1181 31.8677 36.7504 31.387 38.3612L30.9339 39.8504L29.844 43.4504L29.1421 45.7784L28.844 46.7492L28.5479 47.6972L28.2534 48.6224C27.9701 49.5046 27.6792 50.3841 27.38 51.2608ZM58.3163 69.7108V44.3912C58.3163 44.2184 58.3163 44.0408 58.3147 43.8592L58.31 43.2992L58.3018 42.7124L58.2831 41.7812L58.2608 40.968C58.2487 40.5754 58.2344 40.1829 58.2178 39.7904L58.1827 39.0332L58.1319 38.094L58.0897 37.406L58.0647 37.0548L58.0483 36.8516C58.0222 36.7831 58.0147 36.7087 58.0265 36.6362C58.0382 36.5637 58.0688 36.4958 58.1151 36.4396C58.1699 36.3904 58.2338 36.353 58.303 36.3294C58.3721 36.3059 58.4452 36.2967 58.5178 36.3024H65.2143C65.4454 36.2946 65.675 36.3415 65.8854 36.4396C66.0663 36.5352 66.1909 36.7144 66.2206 36.9204L66.5225 37.848C66.6461 38.3025 66.7247 38.7686 66.7573 39.2392C68.0543 38.0759 69.5572 37.1782 71.1846 36.5948C72.8027 36.0212 74.5036 35.7309 76.2159 35.736C77.5494 35.7424 78.8736 35.9627 80.1405 36.3888C81.6029 36.8676 82.9368 37.6877 84.0369 38.7845C85.1371 39.8812 85.9734 41.2246 86.4799 42.7088C87.1507 44.472 87.4135 46.7504 87.4135 49.5432V69.7108C87.4135 70.1228 87.2346 70.3288 86.8768 70.3288L79.0389 70.4C78.9478 70.4135 78.8548 70.405 78.7674 70.3752C78.6801 70.3455 78.6006 70.2953 78.5355 70.2286C78.4704 70.162 78.4213 70.0807 78.3922 69.9912C78.3631 69.9017 78.3548 69.8066 78.3678 69.7132V50.5788C78.3461 49.2973 78.0707 48.0337 77.5581 46.8644C77.1982 46.0017 76.6045 45.2627 75.8471 44.7348C74.9913 44.1984 73.9988 43.9354 72.9964 43.9792C71.9182 43.9632 70.8479 44.162 69.8436 44.5632C68.9255 44.9386 68.0838 45.4859 67.3616 46.1772V69.7108C67.3616 70.1228 67.1827 70.3288 66.8249 70.3288H58.9206C58.8386 70.3408 58.755 70.3332 58.6764 70.3064C58.5978 70.2796 58.5263 70.2344 58.4677 70.1744C58.4091 70.1145 58.365 70.0414 58.3388 69.9609C58.3125 69.8804 58.305 69.7948 58.3167 69.7108H58.3163Z" fill="#9999FF"/>
</g>
<defs>
<clipPath id="clip0_247_456">
<rect width="100" height="100" fill="white"/>
</clipPath>
</defs>
</svg>
