<svg width="100" height="100" viewBox="0 0 100 100" fill="none" xmlns="http://www.w3.org/2000/svg">
<g clip-path="url(#clip0_247_459)">
<path d="M76.5625 0H23.4375C10.4933 0 0 10.4933 0 23.4375V76.5625C0 89.5067 10.4933 100 23.4375 100H76.5625C89.5067 100 100 89.5067 100 76.5625V23.4375C100 10.4933 89.5067 0 76.5625 0Z" fill="#330000"/>
<path d="M48.3328 59.5051H32.8328L29.666 69.2969C29.5828 69.6719 29.2496 69.9219 28.8746 69.8801H21.041C20.5828 69.8801 20.4578 69.6301 20.5828 69.1301L33.9996 30.5051C34.1246 30.0887 34.2496 29.6301 34.416 29.1301C34.5828 28.2551 34.666 27.3387 34.666 26.4219C34.6246 26.2137 34.791 26.0051 34.9996 25.9637H45.791C46.1246 25.9637 46.291 26.0887 46.3328 26.2969L61.541 69.2137C61.666 69.6719 61.541 69.8801 61.1246 69.8801H52.416C52.1246 69.9219 51.8328 69.7137 51.7496 69.4219L48.3328 59.5051ZM35.2496 51.0469H45.8328C45.5828 50.1719 45.2496 49.1301 44.8746 48.0469C44.4996 46.9219 44.1246 45.7137 43.7496 44.4637C43.3328 43.1719 42.9578 41.9219 42.541 40.6301C42.1246 39.3387 41.7496 38.1301 41.416 36.9219C41.0828 35.7555 40.791 34.6719 40.4996 33.6719H40.416C40.041 35.4637 39.5828 37.2555 38.9996 39.0469C38.3746 41.0469 37.7496 43.1301 37.0828 45.2137C36.5446 47.1802 35.9331 49.126 35.2496 51.0469ZM70.8328 33.2551C69.4578 33.2969 68.1246 32.7551 67.1246 31.7969C66.1664 30.7551 65.6664 29.3801 65.7078 27.9637C65.6664 26.5469 66.2078 25.2137 67.2078 24.2551C68.2078 23.2969 69.5413 22.7969 70.9163 22.7969C72.5413 22.7969 73.7914 23.2969 74.7078 24.2551C75.6312 25.2653 76.1244 26.5957 76.0828 27.9637C76.1246 29.3801 75.6246 30.7551 74.6246 31.7969C73.6663 32.7969 72.2496 33.3387 70.8328 33.2551ZM66.1664 69.4219V37.3387C66.1664 36.9219 66.3328 36.7551 66.7078 36.7551H74.9578C75.3328 36.7551 75.4996 36.9637 75.4996 37.3387V69.4219C75.4996 69.8801 75.3328 70.0887 74.9578 70.0887H66.7914C66.3746 70.0887 66.1664 69.8387 66.1664 69.4219Z" fill="#FF9A00"/>
</g>
<defs>
<clipPath id="clip0_247_459">
<rect width="100" height="100" fill="white"/>
</clipPath>
</defs>
</svg>
