<svg width="100" height="100" viewBox="0 0 100 100" fill="none" xmlns="http://www.w3.org/2000/svg">
<g clip-path="url(#clip0_247_452)">
<path d="M76.5625 0H23.4375C10.4933 0 0 10.4933 0 23.4375V76.5625C0 89.5067 10.4933 100 23.4375 100H76.5625C89.5067 100 100 89.5067 100 76.5625V23.4375C100 10.4933 89.5067 0 76.5625 0Z" fill="#001E36"/>
<path d="M22.5 69.5468V26.6718C22.5 26.38 22.625 26.2136 22.9168 26.2136C23.625 26.2136 24.2918 26.2136 25.25 26.1718C26.25 26.13 27.2918 26.13 28.4168 26.0886C29.5418 26.0468 30.75 26.0468 32.0418 26.005C33.3332 25.9636 34.5832 25.9636 35.8332 25.9636C39.25 25.9636 42.0832 26.38 44.4168 27.255C46.5084 27.9654 48.4156 29.1326 50 30.6718C51.3426 32.0189 52.38 33.6388 53.0418 35.4218C53.6668 37.1718 54 38.9636 54 40.8386C54 44.4218 53.1668 47.38 51.5 49.7136C49.8332 52.0468 47.5 53.7968 44.7918 54.7968C41.9582 55.8386 38.8332 56.2136 35.4168 56.2136C34.4168 56.2136 33.75 56.2136 33.3332 56.1718C32.9168 56.13 32.3332 56.13 31.5418 56.13V69.505C31.5832 69.7968 31.375 70.0468 31.0832 70.0886H23C22.6668 70.0886 22.5 69.9218 22.5 69.5468ZM31.5832 34.255V48.255C32.1668 48.2968 32.7082 48.3386 33.2082 48.3386H35.4168C37.0418 48.3386 38.6668 48.0886 40.2082 47.5886C41.5418 47.2136 42.7082 46.4218 43.625 45.38C44.5 44.3386 44.9168 42.9218 44.9168 41.0886C44.9559 39.7865 44.6234 38.5001 43.9582 37.38C43.25 36.2968 42.25 35.4636 41.0418 35.005C39.5 34.38 37.8332 34.13 36.125 34.1718C35.0418 34.1718 34.0832 34.1718 33.2918 34.2136C32.4582 34.1718 31.875 34.2136 31.5832 34.255ZM80 45.7136C78.75 45.0468 77.4168 44.5886 76 44.2968C74.4582 43.9636 72.9168 43.755 71.3332 43.755C70.5 43.7136 69.625 43.8386 68.8332 44.0468C68.2918 44.1718 67.8332 44.4636 67.5418 44.88C67.3332 45.2136 67.2082 45.63 67.2082 46.005C67.2082 46.38 67.375 46.755 67.625 47.0886C68 47.5468 68.5 47.9218 69.0418 48.2136C70.0078 48.7139 70.9948 49.1727 72 49.5886C74.25 50.3386 76.4168 51.38 78.4168 52.63C79.7918 53.505 80.9168 54.6718 81.7082 56.0886C82.375 57.4218 82.7082 58.88 82.6668 60.38C82.7082 62.3386 82.125 64.2968 81.0418 65.9218C79.8796 67.5851 78.2579 68.8737 76.375 69.63C74.3332 70.505 71.8332 70.9636 68.8332 70.9636C66.9168 70.9636 65.0418 70.7968 63.1668 70.4218C61.6972 70.168 60.268 69.7197 58.9168 69.0886C58.625 68.9218 58.4168 68.63 58.4582 68.2968V61.0468C58.4582 60.9218 58.5 60.755 58.625 60.6718C58.75 60.5886 58.875 60.63 59 60.7136C60.625 61.6718 62.3332 62.3386 64.1668 62.755C65.75 63.1718 67.4168 63.38 69.0832 63.38C70.6668 63.38 71.7918 63.1718 72.5418 62.7968C73.2082 62.505 73.6668 61.7968 73.6668 61.0468C73.6668 60.4636 73.3332 59.9218 72.6668 59.38C72 58.8386 70.625 58.2136 68.5832 57.4218C66.4888 56.6838 64.4998 55.6753 62.6668 54.4218C61.3611 53.4912 60.2793 52.2813 59.5 50.88C58.8332 49.5468 58.5 48.0886 58.5418 46.63C58.5418 44.8386 59.0418 43.13 59.9582 41.5886C61 39.9218 62.5418 38.5886 64.3332 37.755C66.2918 36.755 68.75 36.2968 71.7082 36.2968C73.4168 36.2968 75.1668 36.4218 76.875 36.6718C78.125 36.8386 79.3332 37.1718 80.4582 37.63C80.625 37.6718 80.7918 37.8386 80.875 38.005C80.9168 38.1718 80.9582 38.3386 80.9582 38.505V45.2968C80.9582 45.4636 80.875 45.63 80.75 45.7136C80.375 45.7968 80.1668 45.7968 80 45.7136Z" fill="#31A8FF"/>
</g>
<defs>
<clipPath id="clip0_247_452">
<rect width="100" height="100" fill="white"/>
</clipPath>
</defs>
</svg>
