<svg width="100" height="100" viewBox="0 0 100 100" fill="none" xmlns="http://www.w3.org/2000/svg">
<g clip-path="url(#clip0_247_467)">
<path d="M76.5625 0H23.4375C10.4933 0 0 10.4933 0 23.4375V76.5625C0 89.5067 10.4933 100 23.4375 100H76.5625C89.5067 100 100 89.5067 100 76.5625V23.4375C100 10.4933 89.5067 0 76.5625 0Z" fill="#00005B"/>
<path d="M21.0938 71.3594V28.4426C21.0938 28.1512 21.2188 27.9844 21.5105 27.9844C22.2188 27.9844 22.8855 27.9844 23.8438 27.9426C24.8438 27.9012 25.8855 27.9012 27.0105 27.8594C28.1355 27.8176 29.3438 27.8176 30.6355 27.7762C31.927 27.7344 33.177 27.7344 34.427 27.7344C37.8437 27.7344 40.677 28.1512 43.0105 29.0262C45.1021 29.7364 47.0093 30.9035 48.5937 32.4426C49.9363 33.7897 50.9737 35.4096 51.6355 37.1926C52.2605 38.9426 52.5937 40.7344 52.5937 42.6094C52.5937 46.1926 51.7605 49.1512 50.0937 51.4844C48.427 53.8176 46.0937 55.5676 43.3855 56.5676C40.552 57.6094 37.427 57.9844 34.0105 57.9844C33.0105 57.9844 32.3437 57.9844 31.927 57.9426C31.5105 57.9012 30.927 57.9012 30.1355 57.9012V71.2762C30.177 71.5676 29.9687 71.8176 29.677 71.8594H21.5937C21.2605 71.8594 21.0938 71.6926 21.0938 71.3176V71.3594ZM30.177 36.0676V50.0676C30.7605 50.1094 31.302 50.1512 31.802 50.1512H34.0105C35.6355 50.1512 37.2605 49.9012 38.802 49.4012C40.1355 49.0262 41.302 48.2344 42.2187 47.1926C43.0937 46.1512 43.5105 44.7344 43.5105 42.9012C43.5496 41.599 43.2171 40.3127 42.552 39.1926C41.8437 38.1094 40.8437 37.2762 39.6355 36.8176C38.0937 36.1926 36.427 35.9426 34.7187 35.9844C33.6355 35.9844 32.677 35.9844 31.8855 36.0262C31.052 35.9844 30.4687 36.0262 30.177 36.0676ZM58.5937 38.5262H65.8855C66.3023 38.5262 66.6355 38.8176 66.7605 39.1926C66.8855 39.5262 66.9687 39.8594 67.0105 40.2344C67.0937 40.6512 67.1773 41.1094 67.2187 41.5262C67.2605 41.9844 67.3023 42.4844 67.3023 43.0262C68.5533 41.5655 70.0651 40.3503 71.7605 39.4426C73.6773 38.3594 75.8855 37.8176 78.0937 37.8176C78.3855 37.7762 78.6355 37.9844 78.6773 38.2762V46.5676C78.6773 46.9012 78.4687 47.0262 78.0105 47.0262C76.5105 46.9844 74.9687 47.1094 73.5105 47.4426C72.3023 47.6926 71.1355 48.0676 70.0105 48.5676C69.2187 48.9426 68.4687 49.4426 67.8855 50.1094V71.3594C67.8855 71.7762 67.7187 71.9426 67.3437 71.9426H59.1355C58.8023 71.9844 58.5105 71.7762 58.4687 71.4426V48.1926C58.4687 47.1926 58.4687 46.1512 58.4273 45.0676C58.3855 43.9844 58.3855 42.9012 58.3437 41.8176C58.3437 40.8594 58.2605 39.9426 58.1773 38.9844C58.1355 38.7762 58.2605 38.5676 58.4687 38.5262C58.4687 38.4844 58.5523 38.4844 58.5937 38.5262Z" fill="#9999FF"/>
</g>
<defs>
<clipPath id="clip0_247_467">
<rect width="100" height="100" fill="white"/>
</clipPath>
</defs>
</svg>
