<svg width="100" height="100" viewBox="0 0 100 100" fill="none" xmlns="http://www.w3.org/2000/svg">
<g clip-path="url(#clip0_247_463)">
<path d="M76.5625 0H23.4375C10.4933 0 0 10.4933 0 23.4375V76.5625C0 89.5067 10.4933 100 23.4375 100H76.5625C89.5067 100 100 89.5067 100 76.5625V23.4375C100 10.4933 89.5067 0 76.5625 0Z" fill="#00005B"/>
<path d="M41.0769 60.9844H25.5769L22.4101 70.8176C22.3269 71.1926 21.9937 71.4426 21.6187 71.4012H13.7851C13.3269 71.4012 13.2019 71.1512 13.3269 70.6512L26.7433 32.1926C26.8683 31.7762 26.9933 31.4012 27.1601 30.9012C27.3269 30.0262 27.4101 29.1094 27.4101 28.1926C27.3687 27.9844 27.5351 27.7762 27.7433 27.7344H38.5351C38.8269 27.7344 39.0351 27.8594 39.0769 28.0676L54.2851 70.5676C54.4101 71.0262 54.2851 71.2344 53.8687 71.2344H45.1601C44.8687 71.2762 44.5769 71.0676 44.4937 70.7762L41.0769 60.7762V60.9844ZM27.9937 52.6926H38.5769C38.3269 51.8176 37.9933 50.7762 37.6183 49.6926C37.2433 48.5676 36.8683 47.3594 36.4933 46.1094C36.0769 44.8176 35.7019 43.5676 35.2851 42.2762C34.8683 40.9844 34.4937 39.7762 34.1601 38.5676C33.8269 37.4012 33.5351 36.3176 33.2433 35.3176H33.1601C32.7851 37.1094 32.3269 38.9012 31.7433 40.6926C31.1183 42.6926 30.4933 44.7762 29.8269 46.8594C29.2851 48.9844 28.6187 50.9426 27.9937 52.6926ZM78.8269 57.2344H65.6187C65.7851 58.5262 66.2019 59.8176 66.9101 60.9426C67.6601 62.0676 68.7019 62.9426 69.9519 63.4426C71.6187 64.1512 73.4519 64.5262 75.2851 64.4844C76.7437 64.4426 78.2019 64.3176 79.6187 64.0262C80.8894 63.8597 82.1348 63.5378 83.3269 63.0676C83.5351 62.9012 83.6601 62.9844 83.6601 63.4012V69.7762C83.6601 69.9426 83.6187 70.1094 83.5769 70.2762C83.4937 70.4012 83.4101 70.4844 83.2851 70.5676C81.9526 71.1529 80.5534 71.5727 79.1187 71.8176C77.1696 72.1924 75.1863 72.36 73.2019 72.3176C70.0351 72.3176 67.3687 71.8176 65.2019 70.8594C63.1601 69.9844 61.3687 68.6094 59.9519 66.9012C58.6327 65.2959 57.6544 63.4385 57.0769 61.4426C56.4937 59.4844 56.2019 57.4426 56.2019 55.3594C56.2019 53.1094 56.5351 50.9012 57.2437 48.7344C57.908 46.6481 58.9691 44.7099 60.3687 43.0262C61.7437 41.3594 63.4519 40.0262 65.4101 39.0676C67.3687 38.1094 69.7019 37.7762 72.3687 37.7762C74.5769 37.7344 76.7851 38.1512 78.8269 39.0676C80.5351 39.8176 82.0351 40.9426 83.2019 42.4012C84.2851 43.8176 85.1601 45.4012 85.7019 47.1512C86.2437 48.8176 86.4937 50.5262 86.4937 52.2344C86.4937 53.2344 86.4519 54.1094 86.4101 54.9012C86.3269 55.6926 86.2851 56.2762 86.2437 56.6512C86.2019 56.9426 85.9519 57.1926 85.6601 57.1926C85.4101 57.1926 84.9519 57.2344 84.2851 57.2762C83.6187 57.3594 82.8269 57.4012 81.8687 57.4012C80.9101 57.4012 79.9101 57.2344 78.8269 57.2344ZM65.6187 51.1512H74.4101C75.4937 51.1512 76.2851 51.1512 76.7851 51.1094C77.1187 51.0676 77.4519 50.9844 77.7437 50.7762V50.3594C77.7453 49.8352 77.6608 49.3144 77.4937 48.8176C76.7437 46.4844 74.5351 44.9012 72.0769 44.9844C70.9461 44.921 69.8211 45.1863 68.8377 45.7483C67.8543 46.3102 67.0546 47.1447 66.5351 48.1512C66.0351 49.1094 65.7437 50.1094 65.6187 51.1512Z" fill="#9999FF"/>
</g>
<defs>
<clipPath id="clip0_247_463">
<rect width="100" height="100" fill="white"/>
</clipPath>
</defs>
</svg>
