<svg xmlns="http://www.w3.org/2000/svg" xmlns:xlink="http://www.w3.org/1999/xlink" width="155px" height="60px" viewBox="0 0 155 60"><title>assets/logo/Black-White</title><desc>Created with Sketch.</desc><g id="Symbols" stroke="none" stroke-width="1" fill="none" fill-rule="evenodd"><g id="Menu/Desktop-Menu" transform="translate(-110.000000, -30.000000)"><g id="Assets/Logo/Short/Black-Orange"><g transform="translate(110.000000, 30.000000)"><g id="Production" transform="translate(0.000000, 33.000000)" fill="#F39100"><path d="M95.62434,21.8711574 C95.70474,21.873 95.78394,21.9144 95.87334,21.9534 L97.49574,22.7628 C97.64214,22.8348 97.81254,22.929 97.78974,23.0982 C97.61394,24.3762 95.50014,26.529 91.98414,26.7744 L91.98414,24.3636 C93.41034,24.1224 94.70454,23.2548 95.31714,22.05 C95.38134,21.9246 95.51754,21.8694 95.62434,21.8711574 Z M127.11822,7.48344 L127.11822,9.93504 C125.08482,10.37664 123.67242,12.13344 123.67242,14.27304 L123.67242,14.27304 L123.67242,19.93944 C123.67242,22.03764 125.11002,23.84784 127.11822,24.30984 L127.11822,24.30984 L127.11822,26.76924 C123.25602,26.38584 120.85962,23.77224 120.85962,19.93944 L120.85962,19.93944 L120.85962,14.27304 C120.85962,10.43964 123.25602,7.86144 127.11822,7.48344 L127.11822,7.48344 Z M35.00076,7.48584 L35.00076,9.94164 C32.97816,10.38984 31.57476,12.14124 31.57476,14.27304 L31.57476,14.27304 L31.57476,19.93944 C31.57476,22.02984 33.00276,23.83344 35.00076,24.30324 L35.00076,24.30324 L35.00076,26.76624 C31.14996,26.37564 28.76316,23.76564 28.76316,19.93944 L28.76316,19.93944 L28.76316,14.27304 C28.76316,10.44564 31.14996,7.87104 35.00076,7.48584 L35.00076,7.48584 Z M37.0902,7.49268 C40.9284,7.90308 43.3698,10.53768 43.3698,14.27268 L43.3698,14.27268 L43.3698,19.93908 C43.3698,23.71308 40.9284,26.34948 37.0902,26.76108 L37.0902,26.76108 L37.0902,24.29028 C39.0756,23.80488 40.5162,22.01568 40.5162,19.93908 L40.5162,19.93908 L40.5162,14.27268 C40.5162,12.23268 39.0756,10.44768 37.0902,9.96288 L37.0902,9.96288 Z M129.20772,7.49472 C133.03332,7.91292 135.46752,10.54392 135.46752,14.27292 L135.46752,14.27292 L135.46752,19.93932 C135.46752,23.70612 133.03332,26.34012 129.20772,26.75832 L129.20772,26.75832 L129.20772,24.28392 C131.18052,23.79132 132.61332,22.00752 132.61332,19.93932 L132.61332,19.93932 L132.61332,14.27292 C132.61332,12.23952 131.18052,10.46112 129.20772,9.96912 L129.20772,9.96912 Z M89.89422,7.53228 L89.89422,10.05648 C88.08282,10.63128 86.84742,12.27948 86.84742,14.27388 L86.84742,14.27388 L86.84742,19.94088 C86.84742,21.89448 88.10082,23.58528 89.89422,24.18528 L89.89422,24.18528 L89.89422,26.72208 C86.26722,26.20188 84.03522,23.63928 84.03522,19.94088 L84.03522,19.94088 L84.03522,14.27388 C84.03522,10.57368 86.26722,8.04408 89.89422,7.53228 L89.89422,7.53228 Z M106.06752,12.33138 L106.06752,19.87818 C106.06752,20.88438 106.32012,21.79758 106.99032,22.64778 C107.60412,23.42598 108.68892,23.98398 109.63512,24.24258 C109.82232,24.29298 109.97052,24.41058 109.97052,24.66258 L109.97052,24.66258 L109.97052,26.29878 C109.97052,26.59338 109.84512,26.71938 109.50972,26.71938 C106.36152,26.71938 103.21272,23.90658 103.21272,19.87818 L103.21272,19.87818 L103.21272,12.33138 L106.06752,12.33138 Z M20.45844,7.84962 C20.75304,7.84962 20.87844,7.97562 20.87844,8.26962 L20.87844,8.26962 L20.87844,25.98342 C20.87844,26.27742 20.75244,26.40402 20.45844,26.40402 L20.45844,26.40402 L18.44304,26.40402 C18.14964,26.40402 18.02304,26.27742 18.02304,25.98342 L18.02304,25.98342 L18.02304,8.26962 C18.02304,7.97562 18.14964,7.84962 18.44304,7.84962 L18.44304,7.84962 Z M79.62864,7.8498 C79.92264,7.8498 80.04804,7.9758 80.04804,8.2698 L80.04804,8.2698 L80.04804,25.9842 C80.04804,26.2776 79.92264,26.4042 79.62864,26.4042 L79.62864,26.4042 L77.65584,26.4042 C77.36184,26.4042 77.23704,26.2776 77.23704,25.9842 L77.23704,25.9842 L77.23704,8.2698 C77.23704,7.9758 77.36184,7.8498 77.65644,7.8498 L77.65644,7.8498 Z M116.42202,7.8498 C116.71602,7.8498 116.84202,7.9758 116.84202,8.2698 L116.84202,8.2698 L116.84202,25.9842 C116.84202,26.2776 116.71602,26.4042 116.42202,26.4042 L116.42202,26.4042 L114.40722,26.4042 C114.11382,26.4042 113.98722,26.2776 113.98722,25.9842 L113.98722,25.9842 L113.98722,8.2698 C113.98722,7.9758 114.11382,7.8498 114.40722,7.8498 L114.40722,7.8498 Z M141.7944,7.84962 C142.0884,7.84962 142.2144,7.97562 142.2144,8.26962 L142.2144,8.26962 L142.2144,25.98462 C142.2144,26.27742 142.0884,26.40402 141.7944,26.40402 L141.7944,26.40402 L139.7796,26.40402 C139.4862,26.40402 139.3596,26.27742 139.3596,25.98462 L139.3596,25.98462 L139.3596,8.26962 C139.3596,7.97562 139.4862,7.84962 139.7796,7.84962 L139.7796,7.84962 Z M147.04134,7.8498 C150.94494,7.8498 154.01034,10.662 154.01034,14.6928 L154.01034,14.6928 L154.01034,25.9842 C154.01034,26.2776 153.88374,26.4042 153.58974,26.4042 L153.58974,26.4042 L151.57434,26.4042 C151.28154,26.4042 151.15494,26.2776 151.15494,25.9842 L151.15494,25.9842 L151.15494,14.6928 C151.15494,12.3 149.18334,10.2426 146.66394,10.2426 C145.80174,10.2426 145.02594,10.4814 144.36234,10.8726 L144.36234,10.8726 L144.36234,8.6244 C144.99354,8.1786 145.74954,7.8498 147.04134,7.8498 Z M8.5638,-4.05009359e-14 C13.014,-4.05009359e-14 15.9102,2.9382 15.9102,7.0518 C15.9102,11.292 12.9714,14.1882 8.5638,14.1882 L8.5638,14.1882 L5.3058,14.1882 C5.061,14.1882 4.9026,14.052 4.9026,13.785 L4.9026,13.785 L4.9026,12.198 C4.9026,11.9256 5.0604,11.796 5.3052,11.796 L5.3052,11.796 L8.5638,11.796 C11.1246,11.796 13.0974,9.822 13.0974,7.2618 L13.0974,7.2618 L13.0974,6.8424 C13.0974,4.3644 11.0826,2.3928 8.5638,2.3928 L8.5638,2.3928 L3.2328,2.3928 C2.9394,2.3928 2.8134,2.5176 2.8134,2.8116 L2.8134,2.8116 L2.8134,25.9842 C2.8134,26.277 2.6874,26.4036 2.394,26.4036 L2.394,26.4036 L0.42,26.4036 C0.126,26.4036 3.74988929e-13,26.277 3.74988929e-13,25.9842 L3.74988929e-13,25.9842 L3.74988929e-13,0.42 C3.74988929e-13,0.1254 0.126,-4.05009359e-14 0.42,-4.05009359e-14 L0.42,-4.05009359e-14 Z M53.13402,7.84926 C54.13962,7.84926 55.12842,8.22186 55.37082,8.32806 C55.61442,8.43246 56.19042,8.74206 56.24802,8.83866 L56.24802,8.83866 L56.24802,10.94946 C55.55682,10.50966 54.73902,10.24146 53.84682,10.24146 C51.28602,10.24146 49.39722,12.21426 49.39722,14.69226 L49.39722,14.69226 L49.39722,19.51866 C49.39722,21.95406 51.32862,24.01026 53.84682,24.01026 C54.73902,24.01026 55.55682,23.74266 56.24802,23.30046 L56.24802,23.30046 L56.24802,25.53186 C55.58202,26.03106 54.79602,26.40306 53.42682,26.40306 C49.56522,26.40306 46.58502,23.59026 46.58502,19.51866 L46.58502,19.51866 L46.58502,14.69226 C46.58502,10.74546 49.48122,7.84926 53.13402,7.84926 Z M67.8339,7.8501 C68.1273,7.8501 68.2533,7.9761 68.2533,8.2695 L68.2533,8.2695 L68.2533,19.5195 C68.2533,21.9549 70.2267,24.0111 72.7023,24.0111 C73.6017,24.0111 74.4117,23.7579 75.0981,23.3409 L75.0981,23.3409 L75.0981,25.6503 C74.3187,26.1321 73.3395,26.4039 72.2841,26.4039 C68.4627,26.4039 65.4399,23.5905 65.4399,19.5195 L65.4399,19.5195 L65.4399,8.2695 C65.4399,7.9761 65.5665,7.8501 65.8599,7.8501 L65.8599,7.8501 Z M60.77262,-4.22772928e-14 C61.06662,-4.22772928e-14 61.19262,0.1254 61.19262,0.42 L61.19262,0.42 L61.19262,25.9836 C61.19262,26.2764 61.06662,26.403 60.77262,26.403 L60.77262,26.403 L58.75782,26.403 C58.46442,26.403 58.33782,26.2764 58.33782,25.9836 L58.33782,25.9836 L58.33782,0.42 C58.33782,0.1254 58.46442,-4.22772928e-14 58.75782,-4.22772928e-14 L58.75782,-4.22772928e-14 Z M91.98462,7.47984 C95.49942,7.72464 97.66962,9.76344 97.84542,11.04144 C97.86822,11.21004 97.69782,11.30484 97.55082,11.37684 L97.55082,11.37684 L95.92782,12.18624 C95.83902,12.22524 95.75982,12.26664 95.67942,12.2684826 C95.57262,12.27024 95.43702,12.21504 95.37222,12.08904 C94.75902,10.88544 93.40962,10.12284 91.98462,9.88164 L91.98462,9.88164 Z M26.88138,7.8498 C27.17418,7.8498 27.30138,7.9758 27.30138,8.2698 L27.30138,8.2698 L27.30138,10.4118 C27.30138,10.7466 27.21738,10.8312 26.92398,10.8312 C26.58738,10.8312 26.04198,10.7046 25.32738,10.7046 C24.46698,10.7046 23.69298,10.938 23.02938,11.3214 L23.02938,11.3214 L23.02938,8.8734 C23.14818,8.7708 23.26638,8.6694 23.39658,8.5632 C23.85858,8.1852 24.73998,7.8498 25.32738,7.8498 L25.32738,7.8498 Z M105.6477,3.9048 C105.8997,3.9048 106.0671,4.0296 106.0671,4.3248 L106.0671,4.3248 L106.0671,7.4298 C106.0671,7.7244 106.1925,7.8498 106.4865,7.8498 L106.4865,7.8498 L109.5507,7.8498 C109.8453,7.8498 109.9707,7.9758 109.9707,8.2698 L109.9707,8.2698 L109.9707,9.8226 C109.9707,10.1166 109.8453,10.2426 109.5507,10.2426 L109.5507,10.2426 L100.3575,10.2426 C100.0641,10.2426 99.9375,10.1166 99.9375,9.8226 L99.9375,9.8226 L99.9375,9.0258 L104.6811,4.0296 L104.9757,3.9048 Z M115.37316,0.78834 C116.46456,0.78834 117.26196,1.58514 117.26196,2.63454 C117.26196,3.64314 116.42196,4.52394 115.37316,4.52394 C114.36516,4.52394 113.56716,3.72594 113.56716,2.63454 C113.56716,1.62774 114.40776,0.78834 115.37316,0.78834 Z" id="Combined-Shape"></path></g><g id="Spring" transform="translate(-0.000060, 0.599940)" fill="#000000"><path d="M9.1356,0.00012 C12.6138,0.00012 14.4996,1.42572 15.7566,3.39432 C16.1346,4.02312 16.5528,4.69452 16.5528,4.94532 C16.5528,5.07072 16.4694,5.15472 16.3014,5.23932 L12.9492,6.95772 C12.7824,7.04052 12.6138,7.16652 12.447,7.16652 C12.3198,7.16652 12.1938,7.08132 12.1104,6.87192 C11.3568,5.07072 10.2672,4.40052 9.1356,4.40052 L8.4642,4.40052 C6.831,4.40052 5.4486,5.78292 5.4486,7.41732 C5.4486,9.55572 7.8774,10.18392 10.3086,11.31432 C13.4928,12.78132 16.8894,14.75172 16.8894,19.82112 C16.8894,24.18072 13.8708,27.24012 9.093,27.24012 L7.4166,27.24012 C3.939,27.24012 2.0544,25.81452 0.7956,23.84532 C0.4182,23.21592 0,22.54572 0,22.29432 C0,22.16892 0.0828,22.08492 0.2514,22.00092 L3.6036,20.28372 C3.7722,20.19972 3.939,20.07492 4.1064,20.07492 C4.233,20.07492 4.359,20.15832 4.4424,20.36772 C5.1954,22.16892 6.2856,22.83972 7.4166,22.83972 L9.093,22.83972 C10.728,22.83972 12.1104,21.45732 12.1104,19.82112 C12.1104,17.55972 9.8892,16.72092 7.6272,15.67332 C4.3158,14.07972 0.6696,12.36252 0.6696,7.41732 C0.6696,3.05892 3.6864,0.00012 8.4642,0.00012 L9.1356,0.00012 Z M97.77792,-5.61328761e-14 C98.14152,-5.61328761e-14 98.48352,0.0198 98.81352,0.0498 C99.79992,0.1392 100.63272,0.366 101.35872,0.6882 C102.71172,1.2912 103.66692,2.2458 104.40072,3.3942 C104.77752,4.023 105.19632,4.6944 105.19632,4.9452 C105.19632,5.0706 105.11292,5.1546 104.94432,5.2398 L104.94432,5.2398 L101.59272,6.9576 C101.42472,7.0404 101.25672,7.1664 101.08932,7.1664 C100.96392,7.1664 100.83912,7.0812 100.75392,6.8718 C100.50432,6.2766 100.21632,5.8092 99.90372,5.4432 C99.34632,4.7916 98.70792,4.4778 98.04372,4.4154 C97.95612,4.4058 97.86732,4.3998 97.77792,4.3998 L97.77792,4.3998 L95.01132,4.3998 C93.37872,4.3998 91.99572,5.7822 91.99572,7.4166 L91.99572,7.4166 L91.99572,19.821 C91.99572,21.4566 93.37872,22.839 95.01132,22.839 L95.01132,22.839 L97.06692,22.839 C98.74212,22.839 100.04112,21.498 100.04112,19.821 L100.04112,19.821 L100.04112,18.8316 C99.98952,18.078 99.38652,17.4786 98.62872,17.433 L98.62872,17.433 L95.24592,17.433 C95.11032,17.406 95.01072,17.3076 94.99392,17.1708 L94.99392,17.1708 L96.22272,13.1514 C96.26832,13.0878 96.33012,13.0494 96.40992,13.0326 L96.40992,13.0326 L104.44152,13.0326 C104.73432,13.0326 104.86092,13.1598 104.86092,13.4526 L104.86092,13.4526 L104.86092,19.821 C104.86092,24.1806 101.80152,27.24 97.06692,27.24 L97.06692,27.24 L95.01132,27.24 C90.23472,27.24 87.21732,24.1806 87.21732,19.821 L87.21732,19.821 L87.21732,7.4166 C87.21732,3.0588 90.23472,-5.61328761e-14 95.01132,-5.61328761e-14 L95.01132,-5.61328761e-14 Z M71.31264,0.41874 C71.47944,0.41874 71.60604,0.50274 71.68884,0.62814 L79.19064,14.37354 C79.35864,14.66694 79.94604,16.17594 80.07144,16.51134 L80.23824,16.47054 C80.15544,15.46434 79.98684,9.42954 79.98684,6.11874 L79.98684,0.83874 C79.98684,0.54414 80.11284,0.41874 80.40564,0.41874 L84.34524,0.41874 C84.63924,0.41874 84.76524,0.54414 84.76524,0.83874 L84.76524,26.40114 C84.76524,26.69574 84.63924,26.82114 84.34524,26.82114 L80.86764,26.82114 C80.69904,26.82114 80.57304,26.73714 80.49024,26.61114 L72.98844,12.94974 C72.82044,12.65574 72.23424,11.14674 72.10884,10.81194 L71.94204,10.85454 C72.02544,11.86074 72.19224,17.89434 72.19224,21.20514 L72.19224,26.40114 C72.19224,26.69574 72.06564,26.82114 71.77284,26.82114 L67.79184,26.82114 C67.49964,26.82114 67.37364,26.69574 67.37364,26.40114 L67.37364,0.83874 C67.37364,0.54414 67.49964,0.41874 67.79184,0.41874 L71.31264,0.41874 Z M28.17186,0.41892 C32.94966,0.41892 35.96586,3.52032 35.96586,8.21352 C35.96586,12.36312 32.94966,15.63192 28.17186,15.63192 L28.17186,15.63192 L25.40766,15.63192 C24.65766,15.66792 24.05526,16.24512 23.98086,16.98432 L23.98086,16.98432 L23.98086,26.40132 C23.98086,26.69592 23.85546,26.82132 23.56146,26.82132 L23.56146,26.82132 L19.58166,26.82132 C19.28766,26.82132 19.16106,26.69592 19.16106,26.40132 L19.16106,26.40132 L19.16106,0.83832 C19.16106,0.54432 19.28766,0.41892 19.58166,0.41892 L19.58166,0.41892 Z M47.35836,0.41892 C52.13496,0.41892 55.15296,3.47832 55.15296,8.21352 L55.15296,8.21352 L55.15296,8.63352 C55.15296,10.76952 53.35176,13.24272 51.75816,14.33232 C51.63336,14.41632 51.59016,14.49912 51.59016,14.66712 C51.59016,14.79372 51.67536,15.00252 51.80076,15.33852 L51.80076,15.33852 L55.40436,25.81392 C55.48836,26.10792 55.61376,26.35992 55.61376,26.48592 C55.61376,26.69592 55.48836,26.82132 55.19616,26.82132 L55.19616,26.82132 L50.87916,26.82132 C50.71056,26.82132 50.54256,26.69592 50.50116,26.52732 L50.50116,26.52732 L46.81296,15.88212 C46.77216,15.71532 46.64556,15.63192 46.47696,15.63192 L46.47696,15.63192 L43.79976,15.63192 C43.01136,15.64692 42.37956,16.26432 42.32976,17.04372 L42.32976,17.04372 L42.32976,26.40132 C42.32976,26.69592 42.20316,26.82132 41.90976,26.82132 L41.90976,26.82132 L37.92936,26.82132 C37.63536,26.82132 37.50936,26.69592 37.50936,26.40132 L37.50936,26.40132 L37.50936,0.83832 C37.50936,0.54432 37.63536,0.41892 37.92936,0.41892 L37.92936,0.41892 Z M62.87442,0.37542 C63.16842,0.37542 63.29442,0.50262 63.29442,0.79482 L63.29442,26.35902 C63.29442,26.65122 63.16842,26.77662 62.87442,26.77662 L58.89402,26.77662 C58.60062,26.77662 58.47402,26.65122 58.47402,26.35902 L58.47402,0.79482 C58.47402,0.50262 58.60062,0.37542 58.89402,0.37542 L62.87442,0.37542 Z M28.17186,4.81932 L24.40026,4.81932 C24.10686,4.81932 23.98086,4.94532 23.98086,5.23932 L23.98086,5.23932 L23.98086,10.81152 C23.98086,11.10492 24.10686,11.23092 24.40026,11.23092 L24.40026,11.23092 L28.17186,11.23092 C29.80686,11.23092 31.18926,9.84852 31.18926,8.21352 L31.18926,8.21352 L31.18926,7.83792 C31.18926,6.20172 29.80686,4.81932 28.17186,4.81932 L28.17186,4.81932 Z M47.35836,4.81932 L42.74796,4.81932 C42.45576,4.81932 42.32976,4.94532 42.32976,5.23932 L42.32976,5.23932 L42.32976,10.81152 C42.32976,11.10492 42.45576,11.23092 42.74796,11.23092 L42.74796,11.23092 L47.35836,11.23092 C48.99216,11.23092 50.37576,9.84852 50.37576,8.21352 L50.37576,8.21352 L50.37576,7.83792 C50.37576,6.20172 48.99216,4.81932 47.35836,4.81932 L47.35836,4.81932 Z" id="Combined-Shape"></path></g></g></g></g></g></svg>