<svg width="67" height="100" viewBox="0 0 67 100" fill="none" xmlns="http://www.w3.org/2000/svg">
<g clip-path="url(#clip0_247_471)">
<path d="M16.75 100C25.996 100 33.5 92.5333 33.5 83.3333V66.6666H16.75C7.504 66.6666 0 74.1333 0 83.3333C0 92.5333 7.504 100 16.75 100Z" fill="#0ACF83"/>
<path d="M0 50C0 40.8 7.504 33.3334 16.75 33.3334H33.5V66.6667H16.75C7.504 66.6667 0 59.2 0 50Z" fill="#A259FF"/>
<path d="M0 16.6667C0 7.46667 7.504 0 16.75 0H33.5V33.3333H16.75C7.504 33.3333 0 25.8667 0 16.6667Z" fill="#F24E1E"/>
<path d="M33.5 0H50.25C59.496 0 67 7.46667 67 16.6667C67 25.8667 59.496 33.3333 50.25 33.3333H33.5V0Z" fill="#FF7262"/>
<path d="M67 50C67 59.2 59.496 66.6667 50.25 66.6667C41.004 66.6667 33.5 59.2 33.5 50C33.5 40.8 41.004 33.3334 50.25 33.3334C59.496 33.3334 67 40.8 67 50Z" fill="#1ABCFE"/>
</g>
<defs>
<clipPath id="clip0_247_471">
<rect width="67" height="100" fill="white"/>
</clipPath>
</defs>
</svg>
