<svg width="100" height="100" viewBox="0 0 100 100" fill="none" xmlns="http://www.w3.org/2000/svg">
<path fill-rule="evenodd" clip-rule="evenodd" d="M45.1955 91.3917C24.4455 89.0084 8.33301 71.3875 8.33301 50C8.33301 26.9875 26.9872 8.33337 49.9997 8.33337C73.0122 8.33337 91.6663 26.9875 91.6663 50C91.6663 71.4875 77.9872 69.7209 66.308 68.2084C59.5663 67.3375 53.4955 66.5542 51.0913 70.3667C49.4455 72.975 51.2247 76.225 53.4038 78.4042C54.0512 79.0515 54.5646 79.82 54.915 80.6657C55.2653 81.5115 55.4456 82.4179 55.4456 83.3334C55.4456 84.2488 55.2653 85.1553 54.915 86.001C54.5646 86.8468 54.0512 87.6152 53.4038 88.2625C51.2247 90.4417 48.258 91.7459 45.1955 91.3917ZM46.1872 29.1667C46.1872 30.8243 45.5287 32.414 44.3566 33.5861C43.1845 34.7582 41.5948 35.4167 39.9372 35.4167C38.2796 35.4167 36.6899 34.7582 35.5178 33.5861C34.3457 32.414 33.6872 30.8243 33.6872 29.1667C33.6872 27.5091 34.3457 25.9194 35.5178 24.7473C36.6899 23.5752 38.2796 22.9167 39.9372 22.9167C41.5948 22.9167 43.1845 23.5752 44.3566 24.7473C45.5287 25.9194 46.1872 27.5091 46.1872 29.1667ZM27.083 54.1667C28.7406 54.1667 30.3303 53.5082 31.5024 52.3361C32.6745 51.164 33.333 49.5743 33.333 47.9167C33.333 46.2591 32.6745 44.6694 31.5024 43.4973C30.3303 42.3252 28.7406 41.6667 27.083 41.6667C25.4254 41.6667 23.8357 42.3252 22.6636 43.4973C21.4915 44.6694 20.833 46.2591 20.833 47.9167C20.833 49.5743 21.4915 51.164 22.6636 52.3361C23.8357 53.5082 25.4254 54.1667 27.083 54.1667ZM72.9163 54.1667C74.5739 54.1667 76.1637 53.5082 77.3358 52.3361C78.5079 51.164 79.1663 49.5743 79.1663 47.9167C79.1663 46.2591 78.5079 44.6694 77.3358 43.4973C76.1637 42.3252 74.5739 41.6667 72.9163 41.6667C71.2587 41.6667 69.669 42.3252 68.4969 43.4973C67.3248 44.6694 66.6663 46.2591 66.6663 47.9167C66.6663 49.5743 67.3248 51.164 68.4969 52.3361C69.669 53.5082 71.2587 54.1667 72.9163 54.1667ZM60.4163 35.4167C61.2371 35.4167 62.0498 35.255 62.8081 34.941C63.5664 34.6269 64.2554 34.1665 64.8358 33.5861C65.4161 33.0058 65.8765 32.3168 66.1906 31.5585C66.5047 30.8002 66.6663 29.9875 66.6663 29.1667C66.6663 28.3459 66.5047 27.5332 66.1906 26.7749C65.8765 26.0167 65.4161 25.3277 64.8358 24.7473C64.2554 24.1669 63.5664 23.7066 62.8081 23.3925C62.0498 23.0784 61.2371 22.9167 60.4163 22.9167C58.7587 22.9167 57.169 23.5752 55.9969 24.7473C54.8248 25.9194 54.1663 27.5091 54.1663 29.1667C54.1663 30.8243 54.8248 32.414 55.9969 33.5861C57.169 34.7582 58.7587 35.4167 60.4163 35.4167Z" fill="#FF9209"/>
</svg>
